<?xml version="1.0" encoding="UTF-8" ?>
<!DOCTYPE svg PUBLIC "-//W3C//DTD SVG 1.1//EN" "http://www.w3.org/Graphics/SVG/1.1/DTD/svg11.dtd">
<svg width="512pt" height="512pt" viewBox="0 0 512 512" version="1.1" xmlns="http://www.w3.org/2000/svg">
<path fill="#444477" opacity="1.00" d=" M 47.37 20.36 C 55.43 12.52 66.71 8.29 77.93 8.53 C 196.94 8.54 315.95 8.51 434.96 8.54 C 448.01 8.42 460.94 14.66 468.87 25.04 C 474.63 32.38 477.78 41.67 477.84 50.99 C 477.89 59.63 477.86 68.27 477.85 76.91 C 382.55 76.62 287.25 76.87 191.94 76.79 C 139.34 76.85 86.74 76.68 34.15 76.88 C 34.15 67.91 34.07 58.94 34.19 49.97 C 34.43 38.87 39.29 27.98 47.37 20.36 M 74.43 34.48 C 69.66 35.71 66.87 41.53 68.98 46.01 C 70.38 49.58 74.34 51.56 78.07 51.21 C 82.74 51.00 88.58 52.32 91.91 48.08 C 96.04 43.46 93.11 35.22 86.97 34.31 C 82.82 34.09 78.55 33.85 74.43 34.48 M 118.25 34.25 C 113.61 34.76 110.13 39.61 111.08 44.17 C 111.74 48.34 115.81 51.47 120.00 51.19 C 124.62 50.87 130.16 52.42 133.87 48.83 C 137.85 45.28 137.15 38.19 132.57 35.48 C 128.23 33.09 122.98 34.42 118.25 34.25 M 160.31 34.35 C 154.15 35.40 151.42 43.79 155.74 48.28 C 159.55 52.66 165.90 50.86 170.97 51.16 C 177.26 51.24 181.47 43.34 177.88 38.16 C 174.12 32.22 166.15 34.42 160.31 34.35 M 253.41 34.51 C 249.18 35.75 246.43 40.77 247.84 44.98 C 248.73 49.03 253.03 51.39 256.96 51.21 C 301.95 51.19 346.94 51.25 391.92 51.19 C 396.15 51.49 400.48 48.43 400.89 44.07 C 401.96 38.88 397.25 33.77 392.03 34.17 C 347.38 34.07 302.72 34.18 258.07 34.11 C 256.51 34.14 254.92 34.09 253.41 34.51 Z" />
<path fill="#ff4d4d" opacity="1.00" d=" M 74.43 34.48 C 78.55 33.85 82.82 34.09 86.97 34.31 C 93.11 35.22 96.04 43.46 91.91 48.08 C 88.58 52.32 82.74 51.00 78.07 51.21 C 74.34 51.56 70.38 49.58 68.98 46.01 C 66.87 41.53 69.66 35.71 74.43 34.48 Z" />
<path fill="#f7bb26" opacity="1.00" d=" M 118.25 34.25 C 122.98 34.42 128.23 33.09 132.57 35.48 C 137.15 38.19 137.85 45.28 133.87 48.83 C 130.16 52.42 124.62 50.87 120.00 51.19 C 115.81 51.47 111.74 48.34 111.08 44.17 C 110.13 39.61 113.61 34.76 118.25 34.25 Z" />
<path fill="#25e572" opacity="1.00" d=" M 160.31 34.35 C 166.15 34.42 174.12 32.22 177.88 38.16 C 181.47 43.34 177.26 51.24 170.97 51.16 C 165.90 50.86 159.55 52.66 155.74 48.28 C 151.42 43.79 154.15 35.40 160.31 34.35 Z" />
<path fill="#2a2a49" opacity="1.00" d=" M 253.41 34.51 C 254.92 34.09 256.51 34.14 258.07 34.11 C 302.72 34.18 347.38 34.07 392.03 34.17 C 397.25 33.77 401.96 38.88 400.89 44.07 C 400.48 48.43 396.15 51.49 391.92 51.19 C 346.94 51.25 301.95 51.19 256.96 51.21 C 253.03 51.39 248.73 49.03 247.84 44.98 C 246.43 40.77 249.18 35.75 253.41 34.51 Z" />
<path fill="#2a2a49" opacity="1.00" d=" M 34.15 76.88 C 86.74 76.68 139.34 76.85 191.94 76.79 C 287.25 76.87 382.55 76.62 477.85 76.91 C 477.88 183.93 477.86 290.95 477.87 397.98 C 477.73 405.70 478.48 413.61 476.25 421.13 C 472.36 435.39 460.52 447.16 446.17 450.80 C 439.59 452.66 432.68 452.21 425.92 452.26 C 418.51 452.25 411.11 452.29 403.70 452.25 C 409.86 445.22 416.21 438.37 422.33 431.31 C 426.60 426.32 427.83 418.96 425.39 412.86 C 422.91 406.17 416.22 401.33 409.09 401.12 C 403.58 400.97 398.07 401.14 392.57 401.04 C 392.47 372.36 392.61 343.67 392.50 314.99 C 392.31 306.35 384.61 298.73 375.95 298.69 C 358.63 298.64 341.30 298.66 323.97 298.69 C 314.05 298.56 305.98 308.25 307.19 317.96 C 307.20 345.66 307.24 373.35 307.17 401.04 C 300.88 401.26 294.54 400.70 288.27 401.37 C 279.49 402.75 272.60 411.23 273.09 420.11 C 273.15 425.29 275.80 430.02 279.39 433.61 C 284.90 439.81 290.51 445.92 295.94 452.19 C 265.56 452.34 235.18 452.25 204.80 452.24 C 204.82 435.19 204.75 418.14 204.83 401.09 C 213.86 400.39 224.31 403.29 231.97 397.03 C 240.05 390.93 241.23 378.05 234.41 370.58 C 215.45 349.24 196.34 328.03 177.34 306.73 C 174.87 303.79 171.99 301.04 168.30 299.77 C 161.60 297.20 153.49 299.23 148.81 304.67 C 129.25 326.52 109.70 348.36 90.16 370.22 C 85.54 375.22 84.04 382.86 86.58 389.20 C 89.04 395.93 95.78 400.77 102.94 401.01 C 108.43 401.15 113.93 401.00 119.43 401.08 C 119.51 418.13 119.44 435.18 119.46 452.23 C 105.32 452.30 91.17 452.26 77.03 452.25 C 66.38 452.30 55.76 448.25 47.96 440.97 C 39.05 432.94 33.96 420.98 34.14 409.01 C 34.14 298.30 34.12 187.59 34.15 76.88 M 164.99 142.96 C 157.98 148.41 153.67 157.12 153.62 166.00 C 153.58 187.33 153.61 208.66 153.61 229.99 C 153.24 235.05 158.07 239.58 163.09 238.87 C 167.07 238.46 170.45 234.95 170.62 230.95 C 170.77 219.38 170.56 207.81 170.72 196.25 C 179.17 196.28 187.61 196.28 196.06 196.25 C 196.58 207.73 196.07 219.41 196.31 230.96 C 196.48 235.39 200.61 239.14 205.03 238.91 C 209.67 238.90 213.62 234.58 213.33 229.97 C 213.33 208.67 213.36 187.36 213.31 166.06 C 213.34 154.06 205.31 142.56 194.02 138.47 C 184.44 134.77 173.01 136.52 164.99 142.96 M 230.42 145.06 C 230.38 173.38 230.40 201.71 230.41 230.03 C 230.21 233.99 233.08 237.87 236.99 238.67 C 241.89 240.03 247.25 236.01 247.42 230.95 C 247.53 219.40 247.44 207.84 247.46 196.28 C 254.90 195.98 262.61 197.17 269.80 194.68 C 275.29 192.84 280.22 189.35 283.78 184.78 C 291.34 175.37 292.20 161.28 285.85 151.02 C 280.74 142.36 270.99 136.68 260.93 136.56 C 253.63 136.50 246.32 136.53 239.01 136.55 C 234.43 136.39 230.29 140.48 230.42 145.06 M 298.70 145.02 C 298.53 149.49 302.49 153.56 306.95 153.57 C 312.72 153.66 318.49 153.55 324.25 153.62 C 324.27 176.36 324.28 199.11 324.25 221.86 C 319.50 221.87 314.76 221.87 310.01 221.86 C 306.23 221.47 301.86 222.44 299.88 226.03 C 296.42 231.27 300.72 239.01 306.97 238.91 C 324.00 238.97 341.03 238.93 358.06 238.93 C 362.09 239.10 365.99 236.12 366.72 232.14 C 367.93 227.31 363.98 222.12 359.04 221.92 C 353.13 221.79 347.22 221.93 341.32 221.85 C 341.43 199.09 341.18 176.32 341.44 153.57 C 346.99 153.63 352.55 153.60 358.10 153.59 C 362.03 153.73 365.88 150.90 366.67 147.00 C 368.02 142.10 364.01 136.72 358.95 136.58 C 341.64 136.49 324.32 136.53 307.01 136.56 C 302.57 136.53 298.58 140.56 298.70 145.02 Z" />
<path fill="#ffffff" opacity="1.00" d=" M 164.99 142.96 C 173.01 136.52 184.44 134.77 194.02 138.47 C 205.31 142.56 213.34 154.06 213.31 166.06 C 213.36 187.36 213.33 208.67 213.33 229.97 C 213.62 234.58 209.67 238.90 205.03 238.91 C 200.61 239.14 196.48 235.39 196.31 230.96 C 196.07 219.41 196.58 207.73 196.06 196.25 C 187.61 196.28 179.17 196.28 170.72 196.25 C 170.56 207.81 170.77 219.38 170.62 230.95 C 170.45 234.95 167.07 238.46 163.09 238.87 C 158.07 239.58 153.24 235.05 153.61 229.99 C 153.61 208.66 153.58 187.33 153.62 166.00 C 153.67 157.12 157.98 148.41 164.99 142.96 M 170.78 165.04 C 170.53 169.75 170.71 174.47 170.68 179.18 C 179.20 179.21 187.73 179.21 196.25 179.19 C 196.22 174.47 196.41 169.74 196.15 165.03 C 195.62 158.57 189.51 153.24 183.03 153.64 C 176.86 153.71 171.28 158.90 170.78 165.04 Z" />
<path fill="#ffffff" opacity="1.00" d=" M 230.42 145.06 C 230.29 140.48 234.43 136.39 239.01 136.55 C 246.32 136.53 253.63 136.50 260.93 136.56 C 270.99 136.68 280.74 142.36 285.85 151.02 C 292.20 161.28 291.34 175.37 283.78 184.78 C 280.22 189.35 275.29 192.84 269.80 194.68 C 262.61 197.17 254.90 195.98 247.46 196.28 C 247.44 207.84 247.53 219.40 247.42 230.95 C 247.25 236.01 241.89 240.03 236.99 238.67 C 233.08 237.87 230.21 233.99 230.41 230.03 C 230.40 201.71 230.38 173.38 230.42 145.06 M 247.68 179.22 C 252.09 179.14 256.51 179.29 260.92 179.14 C 266.91 178.97 272.25 174.01 272.91 168.07 C 274.00 161.36 268.77 154.49 262.02 153.76 C 257.19 153.41 252.34 153.70 247.51 153.59 C 247.56 162.12 247.20 170.75 247.68 179.22 Z" />
<path fill="#ffffff" opacity="1.00" d=" M 298.70 145.02 C 298.58 140.56 302.57 136.53 307.01 136.56 C 324.32 136.53 341.64 136.49 358.95 136.58 C 364.01 136.72 368.02 142.10 366.67 147.00 C 365.88 150.90 362.03 153.73 358.10 153.59 C 352.55 153.60 346.99 153.63 341.44 153.57 C 341.18 176.32 341.43 199.09 341.32 221.85 C 347.22 221.93 353.13 221.79 359.04 221.92 C 363.98 222.12 367.93 227.31 366.72 232.14 C 365.99 236.12 362.09 239.10 358.06 238.93 C 341.03 238.93 324.00 238.97 306.97 238.91 C 300.72 239.01 296.42 231.27 299.88 226.03 C 301.86 222.44 306.23 221.47 310.01 221.86 C 314.76 221.87 319.50 221.87 324.25 221.86 C 324.28 199.11 324.27 176.36 324.25 153.62 C 318.49 153.55 312.72 153.66 306.95 153.57 C 302.49 153.56 298.53 149.49 298.70 145.02 Z" />
<path fill="#2a2a49" opacity="1.00" d=" M 170.78 165.04 C 171.28 158.90 176.86 153.71 183.03 153.64 C 189.51 153.24 195.62 158.57 196.15 165.03 C 196.41 169.74 196.22 174.47 196.25 179.19 C 187.73 179.21 179.20 179.21 170.68 179.18 C 170.71 174.47 170.53 169.75 170.78 165.04 Z" />
<path fill="#2a2a49" opacity="1.00" d=" M 247.68 179.22 C 247.20 170.75 247.56 162.12 247.51 153.59 C 252.34 153.70 257.19 153.41 262.02 153.76 C 268.77 154.49 274.00 161.36 272.91 168.07 C 272.25 174.01 266.91 178.97 260.92 179.14 C 256.51 179.29 252.09 179.14 247.68 179.22 Z" />
<path fill="#25e572" opacity="1.00" d=" M 148.81 304.67 C 153.49 299.23 161.60 297.20 168.30 299.77 C 171.99 301.04 174.87 303.79 177.34 306.73 C 196.34 328.03 215.45 349.24 234.41 370.58 C 241.23 378.05 240.05 390.93 231.97 397.03 C 224.31 403.29 213.86 400.39 204.83 401.09 C 204.75 418.14 204.82 435.19 204.80 452.24 C 204.78 463.83 204.84 475.43 204.77 487.03 C 204.63 495.78 196.81 503.46 188.06 503.45 C 170.71 503.47 153.36 503.49 136.01 503.44 C 126.97 503.37 119.09 495.09 119.47 486.06 C 119.46 474.78 119.48 463.51 119.46 452.23 C 119.44 435.18 119.51 418.13 119.43 401.08 C 113.93 401.00 108.43 401.15 102.94 401.01 C 95.78 400.77 89.04 395.93 86.58 389.20 C 84.04 382.86 85.54 375.22 90.16 370.22 C 109.70 348.36 129.25 326.52 148.81 304.67 Z" />
<path fill="#ff4d4d" opacity="1.00" d=" M 307.19 317.96 C 305.98 308.25 314.05 298.56 323.97 298.69 C 341.30 298.66 358.63 298.64 375.95 298.69 C 384.61 298.73 392.31 306.35 392.50 314.99 C 392.61 343.67 392.47 372.36 392.57 401.04 C 398.07 401.14 403.58 400.97 409.09 401.12 C 416.22 401.33 422.91 406.17 425.39 412.86 C 427.83 418.96 426.60 426.32 422.33 431.31 C 416.21 438.37 409.86 445.22 403.70 452.25 C 390.04 467.40 376.52 482.68 362.84 497.82 C 357.98 503.18 349.69 504.97 343.05 502.11 C 339.40 500.66 336.63 497.78 334.18 494.82 C 321.41 480.63 308.78 466.32 295.94 452.19 C 290.51 445.92 284.90 439.81 279.39 433.61 C 275.80 430.02 273.15 425.29 273.09 420.11 C 272.60 411.23 279.49 402.75 288.27 401.37 C 294.54 400.70 300.88 401.26 307.17 401.04 C 307.24 373.35 307.20 345.66 307.19 317.96 Z" />
</svg>
