<?xml version="1.0" encoding="UTF-8" ?>
<!DOCTYPE svg PUBLIC "-//W3C//DTD SVG 1.1//EN" "http://www.w3.org/Graphics/SVG/1.1/DTD/svg11.dtd">
<svg width="264pt" height="191pt" viewBox="0 0 264 191" version="1.1" xmlns="http://www.w3.org/2000/svg">
<path fill="#2396ed" opacity="1.00" d=" M 117.03 0.00 L 144.24 0.00 C 144.31 8.60 144.52 17.20 144.13 25.80 C 135.13 25.72 126.12 25.70 117.12 25.80 C 116.95 17.20 117.09 8.60 117.03 0.00 Z" />
<path fill="#2396ed" opacity="1.00" d=" M 52.84 31.01 C 61.89 30.97 70.94 30.97 80.00 31.00 C 79.99 39.60 80.12 48.20 79.91 56.80 C 70.91 56.70 61.91 56.71 52.92 56.80 C 52.54 48.21 52.66 39.60 52.84 31.01 Z" />
<path fill="#2396ed" opacity="1.00" d=" M 84.99 31.00 C 94.03 30.98 103.06 30.97 112.09 31.01 C 112.19 39.61 112.32 48.21 112.01 56.81 C 103.03 56.70 94.05 56.69 85.07 56.82 C 84.86 48.21 84.96 39.61 84.99 31.00 Z" />
<path fill="#2396ed" opacity="1.00" d=" M 117.05 31.02 C 126.10 30.96 135.15 30.97 144.20 31.01 C 144.37 39.61 144.51 48.21 144.12 56.80 C 135.13 56.70 126.13 56.71 117.14 56.79 C 116.94 48.20 117.07 39.61 117.05 31.02 Z" />
<path fill="#2396ed" opacity="1.00" d=" M 195.36 74.66 C 193.69 61.63 197.51 48.01 205.87 37.85 C 213.16 42.81 220.06 48.81 224.25 56.69 C 226.34 60.46 227.37 64.67 228.30 68.85 C 235.67 68.71 243.16 67.96 250.42 69.60 C 255.38 70.71 259.66 73.57 264.00 76.06 L 264.00 76.72 C 260.59 83.13 257.71 90.20 251.85 94.84 C 243.96 101.72 233.07 103.22 222.97 103.12 C 218.73 112.56 214.33 121.96 208.57 130.59 C 197.58 147.28 182.78 161.52 165.45 171.51 C 141.82 185.16 114.19 191.27 87.01 190.45 C 71.78 191.03 56.35 188.12 42.69 181.28 C 28.08 173.94 16.31 161.41 9.35 146.66 C 3.67 135.05 1.11 122.24 0.00 109.43 L 0.00 98.56 C 0.34 96.72 0.75 94.90 1.13 93.07 C 60.09 92.85 119.04 92.99 178.00 93.00 C 185.55 93.28 193.09 91.91 199.98 88.77 C 198.12 84.19 196.05 79.61 195.36 74.66 Z" />
<path fill="#2396ed" opacity="1.00" d=" M 20.80 62.01 C 29.80 61.97 38.80 61.86 47.79 62.09 C 47.65 70.64 47.73 79.19 47.74 87.75 C 38.78 87.72 29.82 87.67 20.87 87.79 C 20.49 79.20 20.61 70.60 20.80 62.01 Z" />
<path fill="#2396ed" opacity="1.00" d=" M 52.84 62.01 C 61.89 61.93 70.94 61.95 79.99 62.00 C 79.99 70.60 80.11 79.20 79.91 87.80 C 70.91 87.67 61.92 87.68 52.92 87.79 C 52.54 79.20 52.67 70.60 52.84 62.01 Z" />
<path fill="#2396ed" opacity="1.00" d=" M 84.99 62.00 C 94.01 61.94 103.04 61.94 112.07 62.00 C 112.21 70.60 112.30 79.20 112.01 87.80 C 103.03 87.68 94.05 87.67 85.08 87.79 C 84.84 79.20 84.97 70.60 84.99 62.00 Z" />
<path fill="#2396ed" opacity="1.00" d=" M 117.04 62.01 C 126.09 61.94 135.15 61.94 144.20 62.01 C 144.37 70.60 144.51 79.21 144.12 87.79 C 135.12 87.68 126.12 87.69 117.13 87.77 C 116.94 79.18 117.08 70.60 117.04 62.01 Z" />
<path fill="#2396ed" opacity="1.00" d=" M 149.25 62.13 C 158.41 61.87 167.58 61.83 176.73 62.17 C 176.56 70.68 176.58 79.20 176.71 87.72 C 167.56 87.72 158.42 87.71 149.27 87.73 C 149.36 79.20 149.39 70.66 149.25 62.13 Z" />
</svg>
