<?xml version="1.0" encoding="UTF-8" ?>
<!DOCTYPE svg PUBLIC "-//W3C//DTD SVG 1.1//EN" "http://www.w3.org/Graphics/SVG/1.1/DTD/svg11.dtd">
<svg width="225pt" height="225pt" viewBox="0 0 225 225" version="1.1" xmlns="http://www.w3.org/2000/svg">
<path fill="#5c2d91" opacity="1.00" d=" M 111.25 0.00 L 113.68 0.00 C 137.51 0.43 161.20 8.24 180.20 22.72 C 200.79 38.18 215.80 60.91 221.76 85.98 C 223.80 93.97 224.56 102.20 225.00 110.42 L 225.00 115.61 C 224.08 143.66 212.60 171.28 192.78 191.23 C 191.74 189.64 190.73 188.02 189.41 186.65 C 174.07 171.63 159.03 156.30 143.82 141.15 C 140.30 137.55 136.31 134.32 133.57 130.04 C 137.93 130.03 142.30 130.05 146.66 130.03 C 146.66 127.70 146.65 125.36 146.64 123.03 C 137.83 123.08 129.02 123.06 120.21 123.04 C 120.13 115.65 120.15 108.27 120.10 100.89 C 127.83 100.88 135.56 100.87 143.30 100.91 C 143.31 98.61 143.32 96.32 143.32 94.03 C 135.59 94.09 127.85 94.06 120.12 94.05 C 120.13 86.98 120.17 79.91 120.10 72.84 C 128.39 72.83 136.69 72.85 144.98 72.84 C 144.98 70.57 144.98 68.30 144.98 66.03 C 134.12 66.00 123.26 66.00 112.40 66.03 C 112.43 80.49 112.41 94.96 112.41 109.42 C 106.97 104.92 102.58 99.32 97.12 94.84 C 96.58 106.49 97.37 118.16 96.78 129.80 L 95.94 129.94 C 95.94 108.63 95.95 87.32 95.93 66.01 C 93.39 66.01 90.84 66.01 88.30 66.05 C 88.29 72.50 88.28 78.95 88.30 85.41 C 73.88 71.59 60.02 57.20 45.81 43.16 C 41.87 39.44 38.50 35.03 33.80 32.20 C 54.18 11.95 82.58 0.43 111.25 0.00 M 152.24 66.06 C 152.27 68.31 152.27 70.56 152.25 72.82 C 158.43 72.88 164.60 72.80 170.77 72.86 C 170.68 91.93 170.74 110.99 170.74 130.05 C 173.24 130.04 175.74 130.04 178.25 130.05 C 178.25 110.98 178.29 91.92 178.23 72.85 C 184.46 72.82 190.70 72.85 196.93 72.84 C 196.94 70.56 196.94 68.28 196.94 66.00 C 182.04 66.06 167.14 65.94 152.24 66.06 Z" />
<path fill="#6d429c" opacity="1.00" d=" M 0.48 103.07 C 2.58 76.47 14.65 50.79 33.80 32.20 C 38.50 35.03 41.87 39.44 45.81 43.16 C 60.02 57.20 73.88 71.59 88.30 85.41 C 88.56 97.04 87.83 108.71 88.79 120.32 C 77.02 102.33 65.71 84.03 53.98 66.00 C 50.72 66.01 47.46 66.01 44.20 66.01 C 44.21 87.35 44.19 108.69 44.21 130.03 C 46.75 130.04 49.30 130.04 51.85 130.03 C 51.79 117.02 51.84 104.02 51.82 91.02 C 51.79 85.55 52.02 80.06 51.34 74.62 C 52.15 76.14 52.96 77.67 53.84 79.15 C 64.62 96.09 75.74 112.84 86.36 129.88 C 89.55 130.02 92.75 130.21 95.94 129.94 L 96.78 129.80 C 97.37 118.16 96.58 106.49 97.12 94.84 C 102.58 99.32 106.97 104.92 112.41 109.42 C 112.43 116.26 112.46 123.11 112.39 129.95 C 119.45 130.14 126.51 129.99 133.57 130.04 C 136.31 134.32 140.30 137.55 143.82 141.15 C 159.03 156.30 174.07 171.63 189.41 186.65 C 190.73 188.02 191.74 189.64 192.78 191.23 C 175.36 209.10 151.81 220.87 127.04 223.97 C 124.02 224.28 120.99 224.54 117.98 225.00 L 106.67 225.00 C 90.01 223.61 73.40 219.50 58.74 211.26 C 33.95 197.90 14.63 174.84 5.83 148.08 C 2.41 138.40 0.98 128.19 0.00 118.01 L 0.00 106.66 C 0.17 105.46 0.33 104.27 0.48 103.07 M 24.12 121.19 C 21.06 122.62 19.75 127.15 22.49 129.54 C 25.03 132.54 30.27 130.74 30.98 127.04 C 31.79 123.29 27.75 119.72 24.12 121.19 M 74.75 148.72 C 67.55 155.05 68.03 168.47 76.39 173.59 C 81.04 176.46 86.92 175.61 91.79 173.79 C 91.83 172.95 91.89 171.28 91.93 170.44 C 87.22 172.87 80.58 173.57 76.63 169.40 C 71.42 163.77 72.53 153.24 79.31 149.29 C 83.23 147.03 88.11 147.72 91.99 149.71 C 91.94 148.54 91.91 147.36 91.88 146.19 C 86.29 144.26 79.20 144.33 74.75 148.72 M 103.36 153.54 C 98.43 154.79 95.40 160.03 96.04 164.95 C 95.51 171.59 102.65 177.15 108.99 175.06 C 117.49 173.02 119.36 160.37 112.89 155.10 C 110.26 152.94 106.53 152.75 103.36 153.54 M 125.36 158.04 C 125.47 156.65 125.58 155.27 125.67 153.88 C 124.77 153.88 122.96 153.88 122.06 153.87 C 122.10 160.90 122.10 167.93 122.06 174.96 C 123.24 174.95 124.42 174.93 125.60 174.92 C 125.90 169.81 124.71 164.42 126.48 159.52 C 127.41 156.67 130.58 156.21 133.13 156.87 C 132.95 155.69 132.82 154.50 132.75 153.31 C 129.32 152.79 126.81 155.23 125.36 158.04 M 141.01 154.05 C 133.52 157.82 132.98 170.41 140.46 174.47 C 144.13 176.16 148.36 175.36 151.92 173.77 C 152.00 172.89 152.18 171.13 152.27 170.26 C 149.42 172.32 145.59 173.26 142.24 171.90 C 139.81 170.59 138.74 167.79 138.72 165.15 C 143.73 165.21 148.75 165.21 153.77 165.16 C 153.78 161.92 153.54 158.34 151.23 155.83 C 148.72 152.97 144.36 152.58 141.01 154.05 Z" />
<path fill="#ffffff" opacity="1.00" d=" M 44.20 66.01 C 47.46 66.01 50.72 66.01 53.98 66.00 C 65.71 84.03 77.02 102.33 88.79 120.32 C 87.83 108.71 88.56 97.04 88.30 85.41 C 88.28 78.95 88.29 72.50 88.30 66.05 C 90.84 66.01 93.39 66.01 95.93 66.01 C 95.95 87.32 95.94 108.63 95.94 129.94 C 92.75 130.21 89.55 130.02 86.36 129.88 C 75.74 112.84 64.62 96.09 53.84 79.15 C 52.96 77.67 52.15 76.14 51.34 74.62 C 52.02 80.06 51.79 85.55 51.82 91.02 C 51.84 104.02 51.79 117.02 51.85 130.03 C 49.30 130.04 46.75 130.04 44.21 130.03 C 44.19 108.69 44.21 87.35 44.20 66.01 Z" />
<path fill="#ffffff" opacity="1.00" d=" M 112.40 66.03 C 123.26 66.00 134.12 66.00 144.98 66.03 C 144.98 68.30 144.98 70.57 144.98 72.84 C 136.69 72.85 128.39 72.83 120.10 72.84 C 120.17 79.91 120.13 86.98 120.12 94.05 C 127.85 94.06 135.59 94.09 143.32 94.03 C 143.32 96.32 143.31 98.61 143.30 100.91 C 135.56 100.87 127.83 100.88 120.10 100.89 C 120.15 108.27 120.13 115.65 120.21 123.04 C 129.02 123.06 137.83 123.08 146.64 123.03 C 146.65 125.36 146.66 127.70 146.66 130.03 C 142.30 130.05 137.93 130.03 133.57 130.04 C 126.51 129.99 119.45 130.14 112.39 129.95 C 112.46 123.11 112.43 116.26 112.41 109.42 C 112.41 94.96 112.43 80.49 112.40 66.03 Z" />
<path fill="#ffffff" opacity="1.00" d=" M 152.24 66.06 C 167.14 65.94 182.04 66.06 196.94 66.00 C 196.94 68.28 196.94 70.56 196.93 72.84 C 190.70 72.85 184.46 72.82 178.23 72.85 C 178.29 91.92 178.25 110.98 178.25 130.05 C 175.74 130.04 173.24 130.04 170.74 130.05 C 170.74 110.99 170.68 91.93 170.77 72.86 C 164.60 72.80 158.43 72.88 152.25 72.82 C 152.27 70.56 152.27 68.31 152.24 66.06 Z" />
<path fill="#ffffff" opacity="1.00" d=" M 24.12 121.19 C 27.75 119.72 31.79 123.29 30.98 127.04 C 30.27 130.74 25.03 132.54 22.49 129.54 C 19.75 127.15 21.06 122.62 24.12 121.19 Z" />
<path fill="#ffffff" opacity="1.00" d=" M 74.75 148.72 C 79.20 144.33 86.29 144.26 91.88 146.19 C 91.91 147.36 91.94 148.54 91.99 149.71 C 88.11 147.72 83.23 147.03 79.31 149.29 C 72.53 153.24 71.42 163.77 76.63 169.40 C 80.58 173.57 87.22 172.87 91.93 170.44 C 91.89 171.28 91.83 172.95 91.79 173.79 C 86.92 175.61 81.04 176.46 76.39 173.59 C 68.03 168.47 67.55 155.05 74.75 148.72 Z" />
<path fill="#ffffff" opacity="1.00" d=" M 103.36 153.54 C 106.53 152.75 110.26 152.94 112.89 155.10 C 119.36 160.37 117.49 173.02 108.99 175.06 C 102.65 177.15 95.51 171.59 96.04 164.95 C 95.40 160.03 98.43 154.79 103.36 153.54 M 104.32 156.42 C 97.06 158.76 97.85 172.39 106.02 172.60 C 110.80 173.36 113.86 168.26 113.26 164.03 C 113.79 159.27 109.10 154.62 104.32 156.42 Z" />
<path fill="#ffffff" opacity="1.00" d=" M 125.36 158.04 C 126.81 155.23 129.32 152.79 132.75 153.31 C 132.82 154.50 132.95 155.69 133.13 156.87 C 130.58 156.21 127.41 156.67 126.48 159.52 C 124.71 164.42 125.90 169.81 125.60 174.92 C 124.42 174.93 123.24 174.95 122.06 174.96 C 122.10 167.93 122.10 160.90 122.06 153.87 C 122.96 153.88 124.77 153.88 125.67 153.88 C 125.58 155.27 125.47 156.65 125.36 158.04 Z" />
<path fill="#ffffff" opacity="1.00" d=" M 141.01 154.05 C 144.36 152.58 148.72 152.97 151.23 155.83 C 153.54 158.34 153.78 161.92 153.77 165.16 C 148.75 165.21 143.73 165.21 138.72 165.15 C 138.74 167.79 139.81 170.59 142.24 171.90 C 145.59 173.26 149.42 172.32 152.27 170.26 C 152.18 171.13 152.00 172.89 151.92 173.77 C 148.36 175.36 144.13 176.16 140.46 174.47 C 132.98 170.41 133.52 157.82 141.01 154.05 M 138.58 162.42 C 142.50 162.44 146.42 162.43 150.34 162.43 C 150.33 159.45 148.36 156.06 145.04 156.17 C 141.54 156.07 139.38 159.41 138.58 162.42 Z" />
<path fill="#6d429c" opacity="1.00" d=" M 104.32 156.42 C 109.10 154.62 113.79 159.27 113.26 164.03 C 113.86 168.26 110.80 173.36 106.02 172.60 C 97.85 172.39 97.06 158.76 104.32 156.42 Z" />
<path fill="#6d429c" opacity="1.00" d=" M 138.58 162.42 C 139.38 159.41 141.54 156.07 145.04 156.17 C 148.36 156.06 150.33 159.45 150.34 162.43 C 146.42 162.43 142.50 162.44 138.58 162.42 Z" />
</svg>
