<?xml version="1.0" encoding="UTF-8" ?>
<!DOCTYPE svg PUBLIC "-//W3C//DTD SVG 1.1//EN" "http://www.w3.org/Graphics/SVG/1.1/DTD/svg11.dtd">
<svg width="800pt" height="600pt" viewBox="0 0 800 600" version="1.1" xmlns="http://www.w3.org/2000/svg">
<path fill="#ff7816" opacity="1.00" d=" M 22.03 63.00 C 84.91 63.00 147.79 63.00 210.66 63.00 C 210.63 85.35 210.66 107.70 210.65 130.04 C 170.19 130.05 129.73 130.05 89.26 130.04 C 92.95 187.49 97.06 244.91 100.66 302.36 C 137.29 302.54 173.92 302.38 210.55 302.44 C 210.74 331.51 210.68 360.58 210.58 389.64 C 210.00 389.50 208.84 389.20 208.25 389.06 C 190.73 383.02 173.33 376.64 155.76 370.73 C 155.52 365.82 155.05 360.92 154.67 356.02 C 137.89 356.08 121.12 356.03 104.34 356.05 C 105.76 373.75 106.77 391.49 108.01 409.20 C 113.72 412.26 120.15 413.77 126.20 416.05 C 149.71 424.41 173.23 432.74 196.77 441.01 C 201.41 442.66 205.97 444.58 210.74 445.81 C 210.54 461.20 210.70 476.59 210.65 491.98 C 210.74 499.64 210.29 507.33 211.13 514.97 L 211.15 515.21 C 156.98 496.21 102.67 477.58 48.54 458.47 C 39.70 326.65 30.84 194.83 22.03 63.00 Z" />
<path fill="#ff4b00" opacity="1.00" d=" M 210.66 63.00 C 269.46 63.00 328.25 63.00 387.05 63.00 C 389.51 89.67 391.81 116.36 394.04 143.05 C 388.07 233.30 381.95 323.55 375.91 413.80 C 374.87 428.86 374.18 443.97 372.59 458.99 C 364.99 461.01 357.80 464.26 350.27 466.53 C 303.90 482.71 257.51 498.83 211.13 514.97 C 210.29 507.33 210.74 499.64 210.65 491.98 C 210.70 476.59 210.54 461.20 210.74 445.81 L 211.30 445.78 C 240.32 435.87 269.14 425.34 298.10 415.24 C 303.28 413.52 308.38 411.60 313.48 409.65 C 316.02 374.12 318.14 338.57 320.70 303.03 C 321.87 285.01 323.25 266.99 324.06 248.94 C 322.45 248.37 320.77 247.99 319.06 247.95 C 282.92 248.07 246.78 247.96 210.64 248.01 C 210.65 226.41 210.67 204.81 210.63 183.20 C 250.00 183.23 289.37 183.22 328.74 183.21 C 329.56 169.46 330.66 155.73 331.56 141.99 C 331.61 138.00 331.94 134.02 332.51 130.08 C 291.89 130.00 251.27 130.06 210.65 130.04 C 210.66 107.70 210.63 85.35 210.66 63.00 Z" />
<path fill="#1572b6" opacity="1.00" d=" M 387.05 63.00 C 522.68 63.00 658.31 63.00 793.95 63.00 C 781.71 200.69 769.34 338.36 757.12 476.05 C 702.64 491.32 648.08 506.31 593.58 521.47 C 590.71 522.50 587.71 521.74 584.94 520.85 C 531.25 505.94 477.54 491.08 423.86 476.11 C 415.84 386.46 407.92 296.80 399.85 207.15 C 398.10 185.77 396.14 164.40 394.04 143.05 C 391.81 116.36 389.51 89.67 387.05 63.00 M 590.49 93.07 C 590.35 110.46 590.54 127.85 590.40 145.24 C 546.31 145.28 502.22 145.24 458.13 145.26 C 459.71 162.41 462.17 179.48 464.32 196.57 C 506.33 196.60 548.34 196.49 590.35 196.63 C 592.37 196.71 594.39 196.76 596.43 196.79 C 594.35 197.42 592.31 198.18 590.36 199.14 C 587.37 200.64 584.28 201.89 581.19 203.14 C 543.62 218.62 506.23 234.56 468.59 249.85 C 470.22 266.48 471.27 283.18 472.88 299.82 C 485.89 300.31 498.92 300.13 511.94 300.26 C 538.14 300.26 564.35 300.45 590.55 300.41 L 590.55 300.65 C 590.32 311.76 590.50 322.86 590.45 333.97 C 590.62 350.47 590.10 366.99 590.71 383.49 L 590.34 383.58 L 590.35 383.85 C 571.25 378.68 551.90 374.49 532.81 369.29 C 532.07 355.56 530.75 341.87 529.60 328.17 C 511.87 328.21 494.14 328.15 476.41 328.20 C 478.94 354.84 480.87 381.54 483.36 408.18 C 519.12 418.78 554.90 429.35 590.68 439.84 C 590.20 457.42 590.47 475.03 590.54 492.62 C 637.09 479.50 683.79 466.88 730.32 453.70 C 732.08 431.62 734.33 409.58 736.28 387.51 C 740.21 340.26 744.86 293.08 748.79 245.83 C 753.63 194.47 757.85 143.06 762.67 91.69 C 706.43 91.61 650.19 91.74 593.96 91.62 C 592.78 91.86 590.23 91.03 590.49 93.07 Z" />
<path fill="#35a8db" opacity="1.00" d=" M 590.49 93.07 C 590.23 91.03 592.78 91.86 593.96 91.62 C 650.19 91.74 706.43 91.61 762.67 91.69 C 757.85 143.06 753.63 194.47 748.79 245.83 C 744.86 293.08 740.21 340.26 736.28 387.51 C 734.33 409.58 732.08 431.62 730.32 453.70 C 683.79 466.88 637.09 479.50 590.54 492.62 C 590.47 475.03 590.20 457.42 590.68 439.84 C 591.40 439.72 592.12 439.58 592.84 439.42 C 614.61 432.86 636.48 426.64 658.29 420.25 C 671.21 416.23 684.35 412.97 697.19 408.69 C 698.39 392.95 699.70 377.20 701.43 361.52 C 703.29 358.58 703.05 355.19 702.26 351.96 C 702.43 348.11 702.64 344.24 703.33 340.44 C 705.31 337.60 705.25 334.27 703.99 331.16 C 705.73 310.04 707.26 288.89 709.57 267.82 C 711.54 265.87 711.66 263.03 710.11 260.79 C 710.21 260.04 710.33 259.28 710.47 258.54 C 711.73 255.86 712.32 252.95 712.04 249.99 L 710.86 249.72 C 670.93 249.32 630.97 249.82 591.03 249.47 L 591.04 249.33 C 592.04 249.05 593.05 248.78 594.07 248.53 C 599.05 248.99 604.05 249.12 609.05 249.01 C 636.70 248.97 664.35 249.01 692.00 248.99 C 698.53 248.94 705.07 249.28 711.57 248.57 C 705.09 247.60 698.54 248.04 692.02 248.00 C 667.02 247.99 642.01 248.01 617.01 247.99 C 610.58 247.95 604.06 248.56 597.76 246.98 C 636.90 229.92 676.30 213.45 715.46 196.46 C 716.15 189.88 716.52 183.25 717.67 176.73 C 719.44 174.82 719.96 171.98 718.22 169.86 C 718.34 169.36 718.59 168.37 718.71 167.87 C 720.40 165.87 720.82 163.03 719.15 160.87 C 719.28 160.36 719.53 159.34 719.66 158.83 C 721.40 156.87 721.86 153.99 720.05 151.90 C 720.36 149.68 720.59 147.45 720.81 145.22 C 677.34 145.21 633.87 145.18 590.40 145.24 C 590.54 127.85 590.35 110.46 590.49 93.07 M 721.28 145.48 C 720.45 146.61 720.45 148.42 721.30 149.55 C 722.72 149.32 722.72 145.66 721.28 145.48 Z" />
<path fill="#ececf1" opacity="1.00" d=" M 89.26 130.04 C 129.73 130.05 170.19 130.05 210.65 130.04 C 210.85 147.76 210.91 165.49 210.63 183.20 C 188.14 183.15 165.65 183.22 143.15 183.17 C 144.77 205.15 146.26 227.14 147.60 249.14 C 168.62 249.13 189.63 249.15 210.64 249.13 C 210.92 266.68 210.84 284.23 210.70 301.78 C 182.80 302.23 154.88 301.82 126.98 301.98 C 118.20 302.04 109.42 301.70 100.66 302.36 C 97.06 244.91 92.95 187.49 89.26 130.04 Z" />
<path fill="#e2e2e7" opacity="1.00" d=" M 210.65 130.04 C 251.27 130.06 291.89 130.00 332.51 130.08 C 331.94 134.02 331.61 138.00 331.56 141.99 C 330.66 155.73 329.56 169.46 328.74 183.21 C 289.37 183.22 250.00 183.23 210.63 183.20 C 210.91 165.49 210.85 147.76 210.65 130.04 Z" />
<path fill="#e9e9e8" opacity="1.00" d=" M 458.13 145.26 C 502.22 145.24 546.31 145.28 590.40 145.24 C 590.50 162.37 590.61 179.50 590.35 196.63 C 548.34 196.49 506.33 196.60 464.32 196.57 C 462.17 179.48 459.71 162.41 458.13 145.26 Z" />
<path fill="#fffffe" opacity="1.00" d=" M 590.40 145.24 C 633.87 145.18 677.34 145.21 720.81 145.22 C 720.59 147.45 720.36 149.68 720.05 151.90 C 719.61 154.18 719.59 156.51 719.66 158.83 C 719.53 159.34 719.28 160.36 719.15 160.87 C 718.51 163.15 718.68 165.53 718.71 167.87 C 718.59 168.37 718.34 169.36 718.22 169.86 C 717.59 172.09 717.72 174.43 717.67 176.73 C 716.52 183.25 716.15 189.88 715.46 196.46 C 676.30 213.45 636.90 229.92 597.76 246.98 C 596.54 247.52 595.29 248.02 594.07 248.53 C 593.05 248.78 592.04 249.05 591.04 249.33 C 589.72 232.64 590.96 215.87 590.36 199.14 C 592.31 198.18 594.35 197.42 596.43 196.79 C 594.39 196.76 592.37 196.71 590.35 196.63 C 590.61 179.50 590.50 162.37 590.40 145.24 Z" />
<path fill="#00a2d9" opacity="1.00" d=" M 721.28 145.48 C 722.72 145.66 722.72 149.32 721.30 149.55 C 720.45 148.42 720.45 146.61 721.28 145.48 Z" />
<path fill="#00a1d9" opacity="1.00" d=" M 720.05 151.90 C 721.86 153.99 721.40 156.87 719.66 158.83 C 719.59 156.51 719.61 154.18 720.05 151.90 Z" />
<path fill="#00a1d9" opacity="1.00" d=" M 719.15 160.87 C 720.82 163.03 720.40 165.87 718.71 167.87 C 718.68 165.53 718.51 163.15 719.15 160.87 Z" />
<path fill="#05a3d9" opacity="1.00" d=" M 718.22 169.86 C 719.96 171.98 719.44 174.82 717.67 176.73 C 717.72 174.43 717.59 172.09 718.22 169.86 Z" />
<path fill="#ff7816" opacity="1.00" d=" M 143.15 183.17 C 165.65 183.22 188.14 183.15 210.63 183.20 C 210.67 204.81 210.65 226.41 210.64 248.01 L 210.64 249.13 C 189.63 249.15 168.62 249.13 147.60 249.14 C 146.26 227.14 144.77 205.15 143.15 183.17 Z" />
<path fill="#e9e9e8" opacity="1.00" d=" M 581.19 203.14 C 584.28 201.89 587.37 200.64 590.36 199.14 C 590.96 215.87 589.72 232.64 591.04 249.33 L 591.03 249.47 C 590.65 253.30 590.36 257.14 590.43 260.99 C 590.59 274.13 590.37 287.27 590.55 300.41 C 564.35 300.45 538.14 300.26 511.94 300.26 C 498.92 300.13 485.89 300.31 472.88 299.82 C 471.27 283.18 470.22 266.48 468.59 249.85 C 506.23 234.56 543.62 218.62 581.19 203.14 Z" />
<path fill="#0ea3d9" opacity="1.00" d=" M 594.07 248.53 C 595.29 248.02 596.54 247.52 597.76 246.98 C 604.06 248.56 610.58 247.95 617.01 247.99 C 642.01 248.01 667.02 247.99 692.02 248.00 C 698.54 248.04 705.09 247.60 711.57 248.57 C 705.07 249.28 698.53 248.94 692.00 248.99 C 664.35 249.01 636.70 248.97 609.05 249.01 C 604.05 249.12 599.05 248.99 594.07 248.53 Z" />
<path fill="#ff3000" opacity="1.00" d=" M 210.64 248.01 C 246.78 247.96 282.92 248.07 319.06 247.95 C 320.77 247.99 322.45 248.37 324.06 248.94 C 286.26 249.37 248.45 248.99 210.64 249.13 L 210.64 248.01 Z" />
<path fill="#e2e2e7" opacity="1.00" d=" M 210.64 249.13 C 248.45 248.99 286.26 249.37 324.06 248.94 C 323.25 266.99 321.87 285.01 320.70 303.03 C 318.14 338.57 316.02 374.12 313.48 409.65 C 308.38 411.60 303.28 413.52 298.10 415.24 C 269.14 425.34 240.32 435.87 211.30 445.78 C 210.09 428.53 211.19 411.20 210.76 393.93 C 210.85 391.93 209.58 390.37 208.25 389.06 C 208.84 389.20 210.00 389.50 210.58 389.64 C 228.90 383.58 246.92 376.67 265.27 370.68 C 266.97 347.94 268.71 325.19 269.71 302.41 C 249.99 302.49 230.27 302.43 210.55 302.44 C 173.92 302.38 137.29 302.54 100.66 302.36 C 109.42 301.70 118.20 302.04 126.98 301.98 C 154.88 301.82 182.80 302.23 210.70 301.78 C 210.84 284.23 210.92 266.68 210.64 249.13 Z" />
<path fill="#fffffe" opacity="1.00" d=" M 590.43 260.99 C 590.36 257.14 590.65 253.30 591.03 249.47 C 630.97 249.82 670.93 249.32 710.86 249.72 C 710.77 252.66 710.68 255.60 710.47 258.54 C 710.33 259.28 710.21 260.04 710.11 260.79 C 709.62 263.10 709.56 265.47 709.57 267.82 C 707.26 288.89 705.73 310.04 703.99 331.16 C 703.69 334.24 703.58 337.34 703.33 340.44 C 702.64 344.24 702.43 348.11 702.26 351.96 C 701.92 355.14 701.70 358.33 701.43 361.52 C 699.70 377.20 698.39 392.95 697.19 408.69 C 684.35 412.97 671.21 416.23 658.29 420.25 C 636.48 426.64 614.61 432.86 592.84 439.42 C 592.25 439.23 591.06 438.84 590.47 438.64 C 590.39 420.38 590.67 402.11 590.35 383.85 L 590.34 383.58 L 590.71 383.49 C 610.09 378.20 629.35 372.44 648.80 367.36 C 648.99 365.55 649.21 363.73 649.27 361.91 C 649.45 358.07 649.43 354.22 649.71 350.39 C 649.88 349.24 650.06 348.09 650.12 346.94 C 650.42 342.71 650.33 338.46 650.65 334.24 C 650.79 333.21 650.93 332.17 651.00 331.14 C 651.36 326.83 651.28 322.50 651.62 318.19 C 651.70 317.42 651.81 316.67 651.87 315.91 C 652.30 311.66 652.28 307.38 652.40 303.12 C 652.57 302.52 652.93 301.32 653.11 300.72 C 632.26 300.65 611.40 300.59 590.55 300.65 L 590.55 300.41 C 590.37 287.27 590.59 274.13 590.43 260.99 Z" />
<path fill="#04a2d9" opacity="1.00" d=" M 710.86 249.72 L 712.04 249.99 C 712.32 252.95 711.73 255.86 710.47 258.54 C 710.68 255.60 710.77 252.66 710.86 249.72 Z" />
<path fill="#05a2d9" opacity="1.00" d=" M 710.11 260.79 C 711.66 263.03 711.54 265.87 709.57 267.82 C 709.56 265.47 709.62 263.10 710.11 260.79 Z" />
<path fill="#35a8db" opacity="1.00" d=" M 590.55 300.65 C 611.40 300.59 632.26 300.65 653.11 300.72 C 652.93 301.32 652.57 302.52 652.40 303.12 C 650.38 307.17 650.81 311.66 651.87 315.91 C 651.81 316.67 651.70 317.42 651.62 318.19 C 649.34 322.23 649.66 326.85 651.00 331.14 C 650.93 332.17 650.79 333.21 650.65 334.24 C 648.30 338.19 648.68 342.75 650.12 346.94 C 650.06 348.09 649.88 349.24 649.71 350.39 C 647.77 354.04 647.43 358.15 649.27 361.91 C 649.21 363.73 648.99 365.55 648.80 367.36 C 629.35 372.44 610.09 378.20 590.71 383.49 C 590.10 366.99 590.62 350.47 590.45 333.97 C 590.50 322.86 590.32 311.76 590.55 300.65 Z" />
<path fill="#ff4b00" opacity="1.00" d=" M 210.55 302.44 C 230.27 302.43 249.99 302.49 269.71 302.41 C 268.71 325.19 266.97 347.94 265.27 370.68 C 246.92 376.67 228.90 383.58 210.58 389.64 C 210.68 360.58 210.74 331.51 210.55 302.44 Z" />
<path fill="#03a2d9" opacity="1.00" d=" M 651.87 315.91 C 650.81 311.66 650.38 307.17 652.40 303.12 C 652.28 307.38 652.30 311.66 651.87 315.91 Z" />
<path fill="#03a2d9" opacity="1.00" d=" M 651.00 331.14 C 649.66 326.85 649.34 322.23 651.62 318.19 C 651.28 322.50 651.36 326.83 651.00 331.14 Z" />
<path fill="#e9e9e8" opacity="1.00" d=" M 476.41 328.20 C 494.14 328.15 511.87 328.21 529.60 328.17 C 530.75 341.87 532.07 355.56 532.81 369.29 C 551.90 374.49 571.25 378.68 590.35 383.85 C 590.67 402.11 590.39 420.38 590.47 438.64 C 591.06 438.84 592.25 439.23 592.84 439.42 C 592.12 439.58 591.40 439.72 590.68 439.84 C 554.90 429.35 519.12 418.78 483.36 408.18 C 480.87 381.54 478.94 354.84 476.41 328.20 Z" />
<path fill="#08a3d9" opacity="1.00" d=" M 703.99 331.16 C 705.25 334.27 705.31 337.60 703.33 340.44 C 703.58 337.34 703.69 334.24 703.99 331.16 Z" />
<path fill="#06a3d9" opacity="1.00" d=" M 650.12 346.94 C 648.68 342.75 648.30 338.19 650.65 334.24 C 650.33 338.46 650.42 342.71 650.12 346.94 Z" />
<path fill="#0ca4da" opacity="1.00" d=" M 649.27 361.91 C 647.43 358.15 647.77 354.04 649.71 350.39 C 649.43 354.22 649.45 358.07 649.27 361.91 Z" />
<path fill="#04a2d9" opacity="1.00" d=" M 702.26 351.96 C 703.05 355.19 703.29 358.58 701.43 361.52 C 701.70 358.33 701.92 355.14 702.26 351.96 Z" />
<path fill="#ececf1" opacity="1.00" d=" M 104.34 356.05 C 121.12 356.03 137.89 356.08 154.67 356.02 C 155.05 360.92 155.52 365.82 155.76 370.73 C 173.33 376.64 190.73 383.02 208.25 389.06 C 209.58 390.37 210.85 391.93 210.76 393.93 C 211.19 411.20 210.09 428.53 211.30 445.78 L 210.74 445.81 C 205.97 444.58 201.41 442.66 196.77 441.01 C 173.23 432.74 149.71 424.41 126.20 416.05 C 120.15 413.77 113.72 412.26 108.01 409.20 C 106.77 391.49 105.76 373.75 104.34 356.05 Z" />
</svg>
