<?xml version="1.0" encoding="UTF-8" ?>
<!DOCTYPE svg PUBLIC "-//W3C//DTD SVG 1.1//EN" "http://www.w3.org/Graphics/SVG/1.1/DTD/svg11.dtd">
<svg width="512pt" height="512pt" viewBox="0 0 512 512" version="1.1" xmlns="http://www.w3.org/2000/svg">
<path fill="#db380e" opacity="1.00" d=" M 300.75 4.87 C 300.19 2.91 301.82 1.57 303.01 0.32 C 303.77 0.26 305.29 0.15 306.05 0.10 C 309.09 2.14 310.43 5.66 312.21 8.71 C 319.71 23.55 323.86 40.49 321.76 57.15 C 320.16 71.38 313.71 84.68 304.86 95.81 C 285.39 120.13 258.75 136.99 236.42 158.38 C 229.79 165.03 222.55 172.98 222.71 183.00 C 222.76 197.64 226.31 211.99 230.41 225.97 C 235.33 241.51 241.41 256.69 248.59 271.33 C 249.77 273.46 250.02 276.24 247.95 277.93 C 245.28 279.89 242.30 277.47 240.26 275.75 C 221.89 260.05 204.87 242.11 193.53 220.58 C 186.70 207.56 182.48 192.75 184.03 177.96 C 185.51 164.64 192.72 152.90 200.24 142.15 C 211.90 126.29 227.23 113.59 243.21 102.28 C 253.99 94.37 265.12 86.92 275.50 78.48 C 281.81 72.78 288.42 66.92 291.88 58.95 C 300.34 42.42 303.44 23.24 300.75 4.87 Z" />
<path fill="#db380e" opacity="1.00" d=" M 348.45 106.65 C 351.04 105.11 354.60 106.94 354.79 109.95 C 354.88 113.39 351.17 114.86 349.00 116.85 C 332.05 130.44 314.94 144.07 300.55 160.44 C 295.63 166.45 291.00 173.16 289.76 181.00 C 288.74 186.77 290.38 192.69 293.23 197.71 C 298.32 206.58 304.88 214.62 308.93 224.07 C 313.19 233.55 315.33 244.40 312.45 254.60 C 308.46 269.23 298.27 281.29 287.16 291.20 C 284.20 293.40 281.64 296.55 277.95 297.45 C 275.74 297.89 274.59 295.66 273.51 294.19 C 274.14 290.41 276.12 287.09 277.35 283.51 C 279.73 276.90 281.57 269.97 281.72 262.92 C 281.82 258.23 279.37 254.05 276.48 250.55 C 271.14 243.49 265.24 236.80 260.95 229.02 C 253.20 215.44 249.99 199.46 251.04 183.92 C 254.11 166.77 267.45 153.99 280.55 143.64 C 301.21 128.06 324.57 116.42 348.45 106.65 Z" />
<path fill="#73a1fb" opacity="1.00" d=" M 376.85 275.60 C 390.15 270.71 405.09 267.36 418.96 271.96 C 429.89 275.37 437.98 284.73 441.84 295.26 C 444.46 303.12 446.90 311.52 445.27 319.86 C 443.54 333.17 434.22 344.02 423.82 351.82 C 406.41 364.61 385.69 372.05 364.91 377.30 C 362.13 378.40 358.52 376.14 358.92 373.02 C 359.12 370.62 361.51 369.49 363.16 368.14 C 379.91 356.25 396.40 343.12 408.02 325.96 C 411.64 320.39 414.52 313.39 412.20 306.76 C 410.02 299.60 403.37 295.22 396.85 292.40 C 389.29 289.35 381.19 287.82 373.07 287.37 C 371.21 287.28 369.41 286.85 367.62 286.41 C 366.66 284.87 366.20 283.15 366.31 281.34 C 369.02 278.18 373.18 277.17 376.85 275.60 Z" />
<path fill="#73a1fb" opacity="1.00" d=" M 130.90 283.15 C 151.18 278.10 172.18 276.70 193.01 276.71 C 197.63 277.04 197.65 284.35 193.13 284.88 C 181.38 287.66 169.49 290.35 158.45 295.40 C 155.45 296.58 152.60 298.15 150.18 300.31 C 163.77 304.23 178.05 304.30 192.06 305.35 C 230.51 306.73 269.06 305.66 307.38 302.16 C 322.37 300.58 337.38 298.71 352.02 295.05 C 354.61 294.26 357.62 294.11 359.50 296.42 C 359.62 297.13 359.85 298.57 359.97 299.29 C 358.40 302.60 354.99 304.24 352.08 306.16 C 341.67 312.38 330.40 317.03 318.82 320.58 C 278.58 333.30 235.88 334.78 194.00 333.85 C 176.54 333.14 159.02 331.81 141.92 328.01 C 131.36 325.42 120.38 322.23 112.06 314.88 C 106.41 309.89 104.69 300.64 109.52 294.52 C 114.84 288.10 123.17 285.41 130.90 283.15 Z" />
<path fill="#73a1fb" opacity="1.00" d=" M 172.12 336.22 C 175.10 334.91 178.50 337.74 177.86 340.89 C 176.79 344.98 170.58 344.70 169.81 349.00 C 171.31 350.45 173.45 350.88 175.39 351.43 C 187.42 354.07 199.75 355.07 212.04 355.40 C 247.71 356.88 283.46 352.70 318.18 344.63 C 319.78 344.27 321.57 344.03 322.96 345.14 C 329.29 349.40 335.45 353.92 341.76 358.23 C 343.65 359.46 345.76 361.27 345.28 363.82 C 344.65 366.82 341.27 367.27 338.80 367.86 C 310.14 374.13 281.21 379.52 251.94 381.91 C 227.92 384.10 203.52 383.59 179.87 378.58 C 169.13 376.25 158.19 373.29 149.04 366.95 C 145.52 364.40 142.41 360.53 142.50 355.97 C 142.47 351.70 145.40 348.11 148.68 345.70 C 155.54 340.54 164.08 338.70 172.12 336.22 Z" />
<path fill="#73a1fb" opacity="1.00" d=" M 176.80 390.85 C 180.72 390.13 184.79 389.33 188.74 390.32 C 191.58 393.03 189.77 396.61 187.55 399.03 C 200.33 403.06 213.79 403.92 227.05 405.16 C 240.63 405.78 254.35 406.60 267.84 404.36 C 279.59 402.42 291.43 400.94 303.11 398.57 C 305.35 398.13 307.89 397.46 309.88 399.03 C 318.36 404.26 326.95 409.32 335.34 414.68 C 338.42 416.41 337.62 421.29 334.30 422.21 C 320.83 428.07 306.54 431.90 292.12 434.52 C 263.14 440.05 233.31 439.34 204.19 435.30 C 193.04 433.58 181.75 431.48 171.48 426.62 C 166.98 424.40 162.59 421.52 159.74 417.30 C 156.24 412.01 155.92 404.25 160.28 399.35 C 164.32 394.35 170.73 392.16 176.80 390.85 Z" />
<path fill="#73a1fb" opacity="1.00" d=" M 97.87 430.80 C 112.07 427.82 126.60 427.28 141.01 425.92 C 143.29 425.84 146.16 425.14 147.81 427.23 C 150.01 429.63 148.19 433.83 144.99 434.06 C 132.31 436.69 119.48 439.38 107.67 444.85 C 106.28 445.56 105.03 446.51 103.76 447.43 C 111.11 451.69 119.69 452.86 127.86 454.69 C 155.61 459.77 183.82 461.84 211.99 462.87 C 263.56 464.24 315.37 460.99 366.13 451.59 C 377.86 449.16 389.66 446.74 400.92 442.57 C 403.35 441.53 406.25 440.56 407.40 437.93 C 407.47 435.59 405.12 433.43 406.26 431.10 C 407.19 428.64 410.50 427.77 412.58 429.36 C 417.79 432.93 421.80 439.56 420.02 446.00 C 418.31 451.98 413.08 456.08 407.75 458.76 C 385.66 469.96 361.04 474.63 336.85 478.85 C 290.31 486.02 243.08 487.43 196.06 486.43 C 181.66 486.40 167.30 485.34 152.93 484.69 C 132.38 482.91 111.65 481.08 91.79 475.19 C 84.36 472.61 76.67 469.65 71.17 463.77 C 67.14 459.65 65.21 453.42 66.70 447.79 C 67.68 444.19 70.43 441.37 73.47 439.36 C 80.89 434.80 89.39 432.43 97.87 430.80 Z" />
<path fill="#73a1fb" opacity="1.00" d=" M 425.88 463.91 C 429.54 461.78 432.41 458.54 436.11 456.47 C 438.02 455.76 439.61 457.36 441.20 458.15 C 441.75 463.36 439.13 468.15 436.39 472.37 C 428.98 483.27 417.28 490.33 405.27 495.19 C 389.73 501.52 373.01 503.84 356.51 506.23 C 329.72 510.04 302.66 511.62 275.62 512.00 L 269.39 512.00 C 227.12 511.53 184.81 507.84 143.38 499.31 C 141.53 498.95 139.50 497.95 139.21 495.88 C 138.45 493.09 141.14 490.43 143.92 490.87 C 185.62 492.25 227.35 493.30 269.08 492.79 C 294.75 492.62 320.44 491.84 346.01 489.39 C 354.72 488.13 363.52 487.22 372.03 484.87 C 390.82 480.49 409.45 474.22 425.88 463.91 Z" />
</svg>
