<?xml version="1.0" encoding="UTF-8" ?>
<!DOCTYPE svg PUBLIC "-//W3C//DTD SVG 1.1//EN" "http://www.w3.org/Graphics/SVG/1.1/DTD/svg11.dtd">
<svg width="1200pt" height="238pt" viewBox="0 0 1200 238" version="1.1" xmlns="http://www.w3.org/2000/svg">
<path fill="#0855a5" opacity="1.00" d=" M 510.26 3.26 C 535.62 0.37 562.02 2.60 585.61 12.83 C 582.21 25.81 578.22 38.63 575.09 51.68 C 560.40 44.80 544.18 41.43 527.99 41.32 C 519.68 41.34 511.12 42.68 503.80 46.82 C 497.09 50.71 491.93 58.03 492.28 66.01 C 492.15 73.71 497.25 80.48 503.50 84.50 C 521.10 96.02 542.27 100.17 560.32 110.83 C 572.41 117.86 583.66 127.46 589.51 140.44 C 597.21 156.92 597.11 176.59 590.20 193.32 C 584.53 207.44 573.31 218.93 559.87 225.88 C 544.45 234.17 526.83 236.81 509.59 238.00 L 499.32 238.00 C 479.05 236.82 458.61 233.10 440.10 224.49 C 442.58 210.99 446.58 197.82 449.52 184.42 C 465.00 191.89 481.84 196.69 499.02 197.82 C 511.86 198.69 526.15 198.07 536.64 189.66 C 547.27 181.45 548.15 163.81 538.40 154.57 C 526.76 143.50 510.62 139.84 496.22 133.79 C 479.42 126.81 462.68 117.27 452.11 102.02 C 436.39 79.57 440.00 46.46 459.07 27.08 C 472.43 13.10 491.38 5.75 510.26 3.26 Z" />
<path fill="#0855a5" opacity="1.00" d=" M 264.20 8.72 C 277.64 6.22 291.31 5.44 304.94 4.76 C 325.60 3.82 346.54 3.05 366.97 6.92 C 382.89 9.69 398.56 16.33 409.86 28.16 C 421.61 39.92 427.14 56.69 427.59 73.06 C 427.77 91.40 423.34 110.78 410.73 124.69 C 397.58 138.90 378.78 146.58 360.02 149.93 C 344.56 152.44 328.66 153.55 313.16 150.73 C 313.09 178.53 313.07 206.33 313.03 234.13 C 296.75 234.15 280.47 234.30 264.19 234.15 C 264.22 159.00 264.19 83.86 264.20 8.72 M 313.21 42.60 C 313.02 66.29 313.09 90.00 313.13 113.70 C 316.68 114.54 320.30 115.11 323.96 115.01 C 332.72 114.84 341.69 115.72 350.20 113.10 C 362.55 109.98 373.80 100.73 377.26 88.19 C 380.06 77.26 379.47 64.69 372.72 55.27 C 367.24 47.60 358.18 43.43 349.12 41.81 C 337.23 39.83 325.03 40.39 313.21 42.60 Z" />
<path fill="#ef3123" opacity="1.00" d=" M 618.68 8.77 C 632.00 6.59 645.46 5.30 658.95 4.74 C 674.62 3.76 690.36 3.48 706.03 4.65 C 724.85 5.50 744.26 9.88 759.59 21.35 C 770.19 28.95 777.06 41.21 778.80 54.07 C 780.89 68.14 776.37 83.11 766.38 93.32 C 758.85 101.77 748.37 106.51 738.15 110.84 C 748.69 114.04 759.40 117.87 767.89 125.14 C 776.81 132.44 783.10 142.74 785.86 153.90 C 789.96 170.74 786.66 189.39 776.28 203.38 C 766.73 216.83 751.60 225.14 736.00 229.54 C 717.16 234.80 697.50 236.19 678.02 236.65 C 659.29 236.91 640.56 235.84 621.94 233.87 C 620.81 233.54 618.82 233.69 618.63 232.14 C 618.46 157.68 618.58 83.22 618.68 8.77 M 667.44 41.14 C 667.59 59.90 667.39 78.66 667.49 97.42 C 681.60 97.13 696.23 98.67 709.77 93.73 C 718.74 90.70 726.86 83.64 729.14 74.19 C 730.83 65.93 729.81 56.46 723.94 50.00 C 717.40 42.64 707.20 40.16 697.77 39.33 C 687.65 39.02 677.34 38.67 667.44 41.14 M 667.33 132.02 C 667.49 154.61 667.47 177.20 667.37 199.78 C 672.19 200.83 677.13 201.09 682.06 201.19 C 696.06 201.51 711.30 200.59 722.98 191.94 C 738.14 181.19 739.80 156.35 726.30 143.62 C 719.37 137.38 710.20 134.20 701.10 132.81 C 689.92 131.27 678.57 131.61 667.33 132.02 Z" />
<path fill="#0855a5" opacity="1.00" d=" M 27.48 5.67 C 32.59 4.57 37.85 5.02 43.03 5.00 C 86.68 4.99 130.33 5.01 173.98 4.99 C 180.93 4.99 188.20 4.34 194.79 7.03 C 207.42 11.60 216.43 24.56 216.28 38.00 C 216.29 92.01 216.29 146.01 216.30 200.01 C 216.81 210.77 212.12 221.83 203.47 228.38 C 197.37 233.05 189.69 235.52 182.02 235.47 C 133.36 235.47 84.70 235.46 36.04 235.47 C 26.96 235.59 17.74 232.21 11.28 225.75 C 4.57 219.37 1.48 210.00 0.83 200.95 C 0.83 146.64 0.83 92.32 0.83 38.01 C 1.65 30.72 3.92 23.31 8.61 17.52 C 13.31 11.58 20.07 7.31 27.48 5.67 M 28.67 10.97 C 17.42 13.44 8.02 23.37 7.00 34.96 C 6.98 90.64 7.02 146.33 6.99 202.01 C 6.28 215.22 17.09 227.69 30.10 229.46 C 33.70 230.23 37.40 229.97 41.06 230.00 C 87.04 230.00 133.03 229.99 179.02 230.00 C 185.18 230.21 191.62 229.36 197.01 226.16 C 205.21 221.49 210.45 212.39 211.00 203.04 C 211.00 149.02 210.99 95.00 211.01 40.97 C 211.28 33.81 209.39 26.34 204.73 20.75 C 199.49 13.70 190.56 10.49 182.04 10.00 C 138.70 10.00 95.35 9.99 52.00 10.01 C 44.23 10.45 36.37 9.58 28.67 10.97 Z" />
<path fill="#ffffff" opacity="1.00" d=" M 28.67 10.97 C 36.37 9.58 44.23 10.45 52.00 10.01 C 95.35 9.99 138.70 10.00 182.04 10.00 C 190.56 10.49 199.49 13.70 204.73 20.75 C 209.39 26.34 211.28 33.81 211.01 40.97 C 210.99 95.00 211.00 149.02 211.00 203.04 C 210.45 212.39 205.21 221.49 197.01 226.16 C 191.62 229.36 185.18 230.21 179.02 230.00 C 133.03 229.99 87.04 230.00 41.06 230.00 C 37.40 229.97 33.70 230.23 30.10 229.46 C 17.09 227.69 6.28 215.22 6.99 202.01 C 7.02 146.33 6.98 90.64 7.00 34.96 C 8.02 23.37 17.42 13.44 28.67 10.97 M 77.49 30.84 C 62.56 42.89 47.65 54.97 32.78 67.09 C 30.68 68.84 28.63 71.13 28.62 74.04 C 28.82 77.29 31.77 79.30 34.36 80.73 C 42.56 84.96 50.97 88.80 59.07 93.22 C 49.92 100.71 40.90 108.36 31.82 115.93 C 29.59 117.92 27.48 121.24 28.79 124.27 C 29.61 126.94 32.48 127.96 34.69 129.20 C 73.98 148.10 113.22 167.11 152.63 185.76 C 150.91 187.47 149.10 189.08 147.14 190.50 C 123.12 179.06 99.18 167.44 75.24 155.84 C 69.45 153.22 63.67 149.41 57.04 149.96 C 49.06 149.44 43.31 155.81 37.49 160.25 C 34.20 163.03 29.57 165.36 28.80 170.01 C 28.05 173.73 31.48 176.18 34.29 177.76 C 61.47 190.91 89.00 203.38 116.07 216.76 C 123.52 219.94 131.65 215.95 137.58 211.41 C 152.45 199.62 167.23 187.71 182.04 175.84 C 185.28 173.22 189.40 170.54 189.93 166.02 C 190.24 163.29 187.77 161.44 185.67 160.24 C 145.80 140.51 105.51 121.59 65.81 101.50 C 67.36 100.31 68.90 99.11 70.44 97.92 C 96.72 110.96 123.14 123.71 149.47 136.63 C 153.70 138.61 158.51 140.71 163.23 139.24 C 171.02 137.76 176.91 132.09 182.84 127.26 C 185.22 125.20 188.27 123.39 189.21 120.19 C 190.48 117.44 189.21 113.78 186.35 112.62 C 177.00 107.77 167.49 103.17 157.96 98.69 C 167.49 90.65 177.18 82.79 186.73 74.76 C 188.58 73.13 189.63 70.47 188.91 68.04 C 187.65 65.37 184.79 64.12 182.33 62.82 C 158.30 51.15 134.26 39.53 110.25 27.83 C 104.87 25.28 99.30 21.84 93.08 22.73 C 86.93 23.01 82.03 27.14 77.49 30.84 Z" />
<path fill="#0855a5" opacity="1.00" d=" M 77.49 30.84 C 82.03 27.14 86.93 23.01 93.08 22.73 C 99.30 21.84 104.87 25.28 110.25 27.83 C 134.26 39.53 158.30 51.15 182.33 62.82 C 184.79 64.12 187.65 65.37 188.91 68.04 C 189.63 70.47 188.58 73.13 186.73 74.76 C 177.18 82.79 167.49 90.65 157.96 98.69 C 167.49 103.17 177.00 107.77 186.35 112.62 C 189.21 113.78 190.48 117.44 189.21 120.19 C 188.27 123.39 185.22 125.20 182.84 127.26 C 176.91 132.09 171.02 137.76 163.23 139.24 C 158.51 140.71 153.70 138.61 149.47 136.63 C 123.14 123.71 96.72 110.96 70.44 97.92 C 68.90 99.11 67.36 100.31 65.81 101.50 C 105.51 121.59 145.80 140.51 185.67 160.24 C 187.77 161.44 190.24 163.29 189.93 166.02 C 189.40 170.54 185.28 173.22 182.04 175.84 C 167.23 187.71 152.45 199.62 137.58 211.41 C 131.65 215.95 123.52 219.94 116.07 216.76 C 89.00 203.38 61.47 190.91 34.29 177.76 C 31.48 176.18 28.05 173.73 28.80 170.01 C 29.57 165.36 34.20 163.03 37.49 160.25 C 43.31 155.81 49.06 149.44 57.04 149.96 C 63.67 149.41 69.45 153.22 75.24 155.84 C 99.18 167.44 123.12 179.06 147.14 190.50 C 149.10 189.08 150.91 187.47 152.63 185.76 C 113.22 167.11 73.98 148.10 34.69 129.20 C 32.48 127.96 29.61 126.94 28.79 124.27 C 27.48 121.24 29.59 117.92 31.82 115.93 C 40.90 108.36 49.92 100.71 59.07 93.22 C 50.97 88.80 42.56 84.96 34.36 80.73 C 31.77 79.30 28.82 77.29 28.62 74.04 C 28.63 71.13 30.68 68.84 32.78 67.09 C 47.65 54.97 62.56 42.89 77.49 30.84 M 66.00 54.06 C 91.46 66.70 117.11 78.96 142.64 91.46 C 144.28 92.17 145.93 93.62 147.83 92.89 C 149.25 92.16 150.37 91.00 151.48 89.89 C 126.37 77.38 101.07 65.25 75.74 53.21 C 73.85 52.40 72.10 51.15 70.06 50.77 C 68.52 51.62 67.31 52.92 66.00 54.06 Z" />
<path fill="#ffffff" opacity="1.00" d=" M 66.00 54.06 C 67.31 52.92 68.52 51.62 70.06 50.77 C 72.10 51.15 73.85 52.40 75.74 53.21 C 101.07 65.25 126.37 77.38 151.48 89.89 C 150.37 91.00 149.25 92.16 147.83 92.89 C 145.93 93.62 144.28 92.17 142.64 91.46 C 117.11 78.96 91.46 66.70 66.00 54.06 Z" />
<path fill="#ef3123" opacity="1.00" d=" M 1072.88 50.80 C 1085.18 50.95 1097.48 50.76 1109.77 50.94 C 1109.79 87.89 1109.61 124.85 1109.92 161.80 C 1111.13 161.74 1112.35 161.69 1113.59 161.63 C 1123.93 143.08 1136.74 126.07 1148.17 108.20 C 1158.45 108.15 1168.72 108.23 1179.00 108.54 C 1183.31 108.65 1187.65 108.88 1191.95 108.26 C 1177.50 125.61 1161.93 141.99 1147.39 159.27 C 1164.62 184.28 1181.59 209.49 1199.39 234.09 C 1183.84 234.32 1168.29 234.07 1152.75 234.28 C 1142.02 216.43 1132.10 198.09 1121.23 180.32 C 1117.98 184.72 1114.57 188.99 1111.29 193.37 C 1110.21 194.66 1110.37 196.43 1110.27 197.99 C 1109.94 210.04 1109.96 222.10 1109.71 234.14 C 1097.43 234.43 1085.13 234.22 1072.85 234.19 C 1072.75 173.06 1072.54 111.93 1072.88 50.80 Z" />
<path fill="#ef3123" opacity="1.00" d=" M 805.04 116.39 C 822.17 108.58 841.23 104.82 860.05 106.09 C 873.07 107.15 886.87 110.99 895.79 121.14 C 904.27 130.55 907.45 143.52 907.83 155.91 C 907.88 165.95 907.85 175.98 907.89 186.02 C 908.13 202.08 907.25 218.25 909.67 234.20 C 898.76 234.17 887.84 234.32 876.93 234.07 C 875.59 229.54 875.31 224.59 874.01 219.97 C 870.35 222.20 867.96 225.90 864.45 228.32 C 854.90 235.26 842.66 237.80 831.03 236.85 C 819.94 236.16 809.01 230.64 802.54 221.49 C 791.31 205.81 793.73 181.96 807.99 168.94 C 816.64 161.30 827.65 156.79 838.85 154.46 C 849.39 152.38 860.16 151.57 870.90 151.62 C 871.91 144.50 868.41 136.42 861.59 133.47 C 851.00 128.81 838.99 130.21 828.07 132.84 C 822.18 133.98 816.93 137.06 811.14 138.52 C 809.26 131.10 806.84 123.83 805.04 116.39 M 838.90 180.88 C 829.63 187.19 829.26 203.09 838.85 209.28 C 850.86 216.44 868.47 208.68 871.61 195.12 C 873.00 188.06 872.12 180.82 872.42 173.68 C 860.96 173.34 848.62 174.14 838.90 180.88 Z" />
<path fill="#ef3123" opacity="1.00" d=" M 968.91 122.95 C 983.54 103.90 1014.23 99.94 1032.95 115.15 C 1044.55 124.94 1049.12 140.60 1049.60 155.29 C 1049.84 181.53 1049.62 207.78 1049.71 234.02 C 1037.46 234.44 1025.18 234.09 1012.92 234.20 C 1012.86 211.13 1012.96 188.06 1012.82 164.99 C 1012.76 157.10 1011.88 148.57 1006.82 142.15 C 1001.76 135.73 992.61 133.72 984.96 135.96 C 977.23 138.01 971.30 144.60 968.83 152.05 C 967.03 157.15 967.67 162.64 967.56 167.94 C 967.47 190.04 967.69 212.15 967.41 234.25 C 955.17 234.17 942.93 234.26 930.69 234.13 C 930.69 206.09 930.72 178.05 930.73 150.01 C 930.90 136.46 929.72 122.92 930.14 109.37 C 940.44 108.58 950.77 109.00 961.09 109.05 C 962.84 115.35 962.60 122.39 963.65 128.97 C 965.96 127.53 967.17 124.97 968.91 122.95 Z" />
</svg>
