<?xml version="1.0" encoding="UTF-8" ?>
<!DOCTYPE svg PUBLIC "-//W3C//DTD SVG 1.1//EN" "http://www.w3.org/Graphics/SVG/1.1/DTD/svg11.dtd">
<svg width="256pt" height="256pt" viewBox="0 0 256 256" version="1.1" xmlns="http://www.w3.org/2000/svg">
<path fill="#34678e" opacity="1.00" d=" M 121.35 0.00 L 132.36 0.00 C 143.67 0.93 155.40 0.96 166.12 5.11 C 177.49 9.65 187.03 20.37 187.38 33.02 C 187.44 53.32 187.46 73.63 187.37 93.93 C 187.02 109.02 174.16 122.72 158.96 123.39 C 137.29 123.65 115.61 123.33 93.94 123.54 C 75.01 124.32 58.37 141.06 57.73 159.99 C 57.59 169.78 57.76 179.57 57.66 189.35 C 50.45 189.29 43.23 189.39 36.01 189.32 C 28.82 189.24 21.63 186.55 16.43 181.52 C 9.88 175.32 6.28 166.69 4.23 158.05 C 2.05 149.05 0.47 139.89 0.00 130.63 L 0.00 122.77 C 0.73 113.09 2.36 103.49 4.87 94.12 C 7.17 85.84 11.95 78.11 18.88 72.93 C 25.74 67.69 34.47 65.17 43.06 65.33 C 70.86 65.35 98.67 65.33 126.47 65.35 C 126.47 62.74 126.46 60.13 126.47 57.52 C 106.10 57.56 85.74 57.53 65.37 57.54 C 65.79 46.31 64.55 34.98 66.22 23.84 C 67.36 15.92 73.36 9.51 80.70 6.71 C 93.59 1.63 107.65 0.73 121.35 0.00 M 89.11 19.12 C 83.93 20.43 80.24 25.70 80.56 30.99 C 80.74 36.85 86.00 42.11 91.92 41.94 C 98.30 42.29 103.92 36.33 103.54 30.03 C 103.57 22.93 95.99 16.96 89.11 19.12 Z" />
<path fill="#f2bb30" opacity="1.00" d=" M 197.85 65.33 C 205.57 65.35 213.29 65.29 221.01 65.33 C 226.58 65.28 232.23 66.83 236.72 70.18 C 243.59 75.23 247.38 83.29 249.88 91.22 C 253.17 102.40 255.25 113.93 256.00 125.56 L 256.00 133.37 C 255.43 146.47 251.69 159.23 246.36 171.15 C 243.62 177.07 239.78 182.85 233.99 186.15 C 229.47 188.80 224.11 189.43 218.96 189.35 C 189.05 189.31 159.15 189.35 129.25 189.33 C 129.27 191.93 129.28 194.53 129.29 197.13 C 149.61 197.13 169.93 197.13 190.25 197.12 C 190.22 205.09 190.31 213.05 190.23 221.02 C 190.14 226.90 188.01 232.70 184.23 237.20 C 179.05 243.42 171.64 247.26 164.14 249.96 C 153.95 253.41 143.29 255.46 132.55 256.00 L 124.78 256.00 C 114.14 255.29 103.57 253.27 93.52 249.65 C 86.04 246.82 78.72 242.72 73.70 236.35 C 70.05 231.77 68.06 225.92 68.21 220.06 C 68.22 200.38 68.16 180.69 68.24 161.01 C 68.49 145.45 82.23 131.31 97.90 131.21 C 118.93 131.11 139.98 131.28 161.01 131.13 C 180.35 130.55 197.29 113.30 197.80 94.02 C 197.92 84.46 197.80 74.90 197.85 65.33 M 160.07 213.11 C 155.10 214.68 151.58 219.89 152.13 225.11 C 152.37 231.11 158.09 236.31 164.12 235.79 C 170.57 235.73 175.86 229.27 174.91 222.93 C 174.52 215.95 166.68 210.71 160.07 213.11 Z" />
</svg>
