<?xml version="1.0" encoding="UTF-8" ?>
<!DOCTYPE svg PUBLIC "-//W3C//DTD SVG 1.1//EN" "http://www.w3.org/Graphics/SVG/1.1/DTD/svg11.dtd">
<svg width="512pt" height="512pt" viewBox="0 0 512 512" version="1.1" xmlns="http://www.w3.org/2000/svg">
<path fill="#fc657e" opacity="1.00" d=" M 253.14 34.73 C 259.98 33.41 265.59 28.04 267.00 21.18 C 268.40 28.04 274.02 33.40 280.85 34.73 C 273.99 36.05 268.33 41.45 267.01 48.36 C 265.64 41.45 260.01 36.05 253.14 34.73 Z" />
<path fill="#70d6f9" opacity="1.00" d=" M 214.45 36.69 C 219.15 34.05 225.41 38.86 224.03 44.09 C 223.28 48.86 216.88 51.19 213.23 48.00 C 209.40 45.21 210.11 38.62 214.45 36.69 Z" />
<path fill="#000000" opacity="1.00" d=" M 0.00 91.05 C 0.93 76.40 14.31 64.00 29.03 64.48 C 163.63 64.47 298.23 64.43 432.83 64.50 C 447.56 64.35 460.83 77.20 461.07 91.94 C 461.22 143.54 461.08 195.13 461.14 246.73 C 470.09 246.83 479.05 246.55 487.99 246.86 C 500.48 247.71 510.93 258.56 512.00 270.92 L 512.00 466.00 C 511.10 479.58 498.71 491.01 485.05 490.52 C 373.38 490.56 261.72 490.54 150.06 490.53 C 142.13 490.90 134.58 484.69 133.54 476.82 C 131.78 467.28 140.27 457.77 149.93 458.34 C 160.20 458.30 170.48 458.36 180.76 458.32 C 180.77 444.73 180.77 431.14 180.76 417.55 C 129.84 417.50 78.92 417.57 28.00 417.51 C 13.69 417.53 1.06 405.34 0.00 391.17 L 0.00 91.05 M 10.02 92.98 C 9.98 176.81 10.00 260.63 10.01 344.46 C 13.24 344.47 16.47 344.46 19.70 344.47 C 19.73 262.30 19.71 180.13 19.71 97.95 C 19.77 94.50 19.19 90.55 21.61 87.69 C 23.49 85.08 26.82 84.00 29.95 84.19 C 163.99 84.22 298.04 84.17 432.09 84.22 C 436.92 83.93 441.44 88.11 441.37 92.98 C 441.47 114.22 441.39 135.47 441.41 156.71 C 444.88 157.47 448.18 158.82 451.16 160.76 C 451.10 140.18 451.14 119.59 451.13 99.01 C 451.07 95.01 451.48 90.87 450.08 87.03 C 448.10 81.18 443.01 76.51 437.00 75.05 C 434.06 74.30 431.00 74.49 428.00 74.46 C 294.97 74.48 161.94 74.44 28.91 74.48 C 18.92 74.11 9.83 82.97 10.02 92.98 M 29.72 94.20 C 29.71 98.80 29.71 103.40 29.72 107.99 C 37.14 108.01 44.57 108.00 52.00 108.00 C 52.00 103.40 52.01 98.80 51.99 94.20 C 44.57 94.20 37.15 94.19 29.72 94.20 M 62.01 94.20 C 61.99 98.80 62.00 103.40 62.00 108.00 C 185.14 108.00 308.28 108.01 431.41 107.99 C 431.41 103.40 431.43 98.80 431.40 94.20 C 308.27 94.20 185.14 94.20 62.01 94.20 M 29.72 118.00 C 29.71 193.49 29.71 268.98 29.72 344.46 C 90.61 344.47 151.50 344.47 212.39 344.46 C 212.39 340.31 212.39 336.16 212.39 332.00 C 195.25 332.00 178.12 331.99 160.98 332.01 C 157.72 331.97 154.27 332.28 151.26 330.79 C 146.77 328.78 143.85 323.94 144.01 319.05 C 143.99 292.35 143.99 265.66 144.01 238.96 C 143.68 232.35 149.31 226.17 155.95 226.06 C 174.76 225.92 193.58 226.05 212.39 226.00 C 212.39 211.35 212.40 196.69 212.38 182.04 C 211.14 168.81 222.58 156.16 235.94 156.48 C 301.10 156.44 366.26 156.48 431.41 156.46 C 431.42 143.64 431.42 130.82 431.41 118.00 C 297.51 118.00 163.61 118.00 29.72 118.00 M 222.42 180.05 C 222.35 275.37 222.41 370.70 222.40 466.02 C 222.20 470.84 224.55 475.72 228.68 478.29 C 231.94 480.63 236.12 480.24 239.92 480.52 C 282.10 480.59 324.29 480.45 366.47 480.59 C 363.92 477.56 362.31 473.91 361.24 470.14 C 320.80 470.12 280.37 470.15 239.93 470.12 C 236.06 470.39 232.51 466.92 232.76 463.04 C 232.73 370.01 232.73 276.98 232.76 183.96 C 232.49 180.04 236.06 176.57 239.95 176.82 C 304.32 176.77 368.70 176.81 433.08 176.81 C 437.11 176.37 441.00 179.81 440.75 183.91 C 440.80 204.85 440.74 225.79 440.78 246.73 C 444.23 246.74 447.67 246.74 451.12 246.73 C 451.08 224.49 451.25 202.26 451.03 180.02 C 451.28 172.59 444.41 166.14 437.05 166.48 C 370.07 166.46 303.08 166.44 236.10 166.49 C 228.83 166.32 222.29 172.77 222.42 180.05 M 242.75 186.81 C 242.74 277.91 242.74 369.02 242.75 460.13 C 282.03 460.14 321.30 460.13 360.58 460.14 C 360.60 455.62 360.59 451.11 360.58 446.60 C 331.41 446.61 302.23 446.59 273.06 446.61 C 270.06 446.57 266.95 446.80 264.11 445.65 C 259.44 443.87 256.14 439.11 256.13 434.11 C 256.04 424.38 256.10 414.64 256.10 404.90 C 255.89 399.98 258.68 395.06 263.16 392.94 C 266.18 391.36 269.69 391.60 272.99 391.59 C 302.19 391.61 331.39 391.60 360.59 391.60 C 360.59 386.93 360.60 382.26 360.58 377.60 C 330.11 377.58 299.64 377.63 269.17 377.58 C 262.35 377.87 256.05 371.98 256.13 365.12 C 256.06 355.06 256.06 345.00 256.13 334.94 C 256.12 328.19 262.30 322.35 269.02 322.62 C 299.54 322.57 330.06 322.62 360.59 322.60 C 360.59 317.93 360.60 313.26 360.58 308.60 C 330.09 308.58 299.59 308.63 269.10 308.57 C 262.29 308.84 256.03 302.92 256.13 296.07 C 256.04 286.35 256.10 276.63 256.10 266.92 C 255.91 262.27 258.35 257.61 262.43 255.33 C 266.20 253.03 270.78 253.69 274.99 253.60 C 306.24 253.56 337.51 253.67 368.76 253.55 C 373.66 250.22 378.98 246.95 385.12 246.81 C 400.33 246.63 415.55 246.79 430.77 246.73 C 430.77 226.76 430.77 206.78 430.77 186.81 C 368.10 186.80 305.42 186.80 242.75 186.81 M 154.02 238.93 C 153.99 265.63 153.99 292.34 154.02 319.04 C 153.76 320.72 155.30 322.23 156.97 321.98 C 175.44 322.02 193.92 321.99 212.39 321.99 C 212.39 293.33 212.39 264.67 212.39 236.00 C 193.89 236.01 175.39 235.97 156.89 236.02 C 155.24 235.78 153.77 237.29 154.02 238.93 M 383.14 257.18 C 376.00 258.82 370.50 265.69 370.61 273.04 C 370.57 336.70 370.59 400.36 370.60 464.01 C 370.53 469.76 373.76 475.38 378.75 478.24 C 382.67 480.75 387.51 480.27 391.96 480.54 C 422.97 480.52 453.97 480.55 484.98 480.52 C 493.94 480.97 502.20 473.08 501.98 464.07 C 502.02 400.70 501.98 337.32 502.00 273.94 C 502.67 264.26 493.59 255.65 483.96 256.72 C 451.64 256.76 419.31 256.72 386.98 256.74 C 385.68 256.75 384.40 256.89 383.14 257.18 M 266.10 266.96 C 266.11 276.63 266.02 286.31 266.14 295.98 C 266.04 298.00 268.26 298.81 269.93 298.60 C 300.15 298.59 330.37 298.60 360.59 298.60 C 360.59 291.40 360.59 284.21 360.58 277.02 C 360.46 272.48 360.69 267.85 362.37 263.57 C 331.26 263.66 300.15 263.53 269.04 263.63 C 267.17 263.37 265.82 265.23 266.10 266.96 M 266.10 335.88 C 266.11 345.58 266.02 355.28 266.15 364.98 C 266.04 367.01 268.28 367.81 269.96 367.60 C 300.17 367.59 330.38 367.61 360.59 367.59 C 360.59 355.93 360.60 344.26 360.58 332.60 C 330.04 332.63 299.49 332.55 268.95 332.64 C 267.16 332.41 265.84 334.21 266.10 335.88 M 10.00 354.47 C 10.05 366.35 9.91 378.22 10.07 390.10 C 10.42 399.39 18.77 407.46 28.08 407.51 C 89.51 407.55 150.95 407.53 212.39 407.52 C 212.39 389.84 212.39 372.16 212.39 354.48 C 144.93 354.46 77.46 354.47 10.00 354.47 M 266.10 404.99 C 266.12 414.66 266.01 424.34 266.15 434.01 C 266.04 436.02 268.28 436.79 269.94 436.60 C 300.15 436.59 330.37 436.61 360.58 436.59 C 360.58 424.93 360.60 413.26 360.57 401.60 C 330.06 401.62 299.55 401.55 269.04 401.63 C 267.15 401.36 265.81 403.26 266.10 404.99 M 190.77 417.54 C 190.76 431.13 190.76 444.73 190.77 458.33 C 197.97 458.34 205.18 458.33 212.39 458.33 C 212.40 444.73 212.39 431.13 212.39 417.54 C 205.18 417.53 197.97 417.53 190.77 417.54 M 143.37 474.01 C 143.06 477.30 145.88 480.43 149.18 480.48 C 171.72 480.66 194.28 480.39 216.83 480.61 C 214.23 477.02 212.79 472.72 212.38 468.34 C 191.57 468.33 170.76 468.32 149.94 468.34 C 146.68 468.07 143.50 470.69 143.37 474.01 Z" />
<path fill="#5290db" opacity="1.00" d=" M 10.02 92.98 C 9.83 82.97 18.92 74.11 28.91 74.48 C 161.94 74.44 294.97 74.48 428.00 74.46 C 431.00 74.49 434.06 74.30 437.00 75.05 C 443.01 76.51 448.10 81.18 450.08 87.03 C 451.48 90.87 451.07 95.01 451.13 99.01 C 451.14 119.59 451.10 140.18 451.16 160.76 C 448.18 158.82 444.88 157.47 441.41 156.71 C 441.39 135.47 441.47 114.22 441.37 92.98 C 441.44 88.11 436.92 83.93 432.09 84.22 C 298.04 84.17 163.99 84.22 29.95 84.19 C 26.82 84.00 23.49 85.08 21.61 87.69 C 19.19 90.55 19.77 94.50 19.71 97.95 C 19.71 180.13 19.73 262.30 19.70 344.47 C 16.47 344.46 13.24 344.47 10.01 344.46 C 10.00 260.63 9.98 176.81 10.02 92.98 Z" />
<path fill="#fc657e" opacity="1.00" d=" M 29.72 94.20 C 37.15 94.19 44.57 94.20 51.99 94.20 C 52.01 98.80 52.00 103.40 52.00 108.00 C 44.57 108.00 37.14 108.01 29.72 107.99 C 29.71 103.40 29.71 98.80 29.72 94.20 Z" />
<path fill="#5290db" opacity="1.00" d=" M 62.01 94.20 C 185.14 94.20 308.27 94.20 431.40 94.20 C 431.43 98.80 431.41 103.40 431.41 107.99 C 308.28 108.01 185.14 108.00 62.00 108.00 C 62.00 103.40 61.99 98.80 62.01 94.20 Z" />
<path fill="#edf4fc" opacity="1.00" d=" M 29.72 118.00 C 163.61 118.00 297.51 118.00 431.41 118.00 C 431.42 130.82 431.42 143.64 431.41 156.46 C 366.26 156.48 301.10 156.44 235.94 156.48 C 222.58 156.16 211.14 168.81 212.38 182.04 C 212.40 196.69 212.39 211.35 212.39 226.00 C 193.58 226.05 174.76 225.92 155.95 226.06 C 149.31 226.17 143.68 232.35 144.01 238.96 C 143.99 265.66 143.99 292.35 144.01 319.05 C 143.85 323.94 146.77 328.78 151.26 330.79 C 154.27 332.28 157.72 331.97 160.98 332.01 C 178.12 331.99 195.25 332.00 212.39 332.00 C 212.39 336.16 212.39 340.31 212.39 344.46 C 151.50 344.47 90.61 344.47 29.72 344.46 C 29.71 268.98 29.71 193.49 29.72 118.00 M 58.47 132.68 C 54.61 134.68 55.60 141.11 59.88 141.87 C 64.31 142.14 68.76 141.99 73.19 141.96 C 76.81 142.03 79.32 137.49 77.30 134.46 C 75.88 131.80 72.59 131.88 69.99 131.99 C 66.18 132.33 62.09 131.26 58.47 132.68 M 93.43 132.71 C 89.62 134.74 90.62 141.09 94.87 141.87 C 99.61 142.10 104.39 142.09 109.13 141.87 C 114.14 140.96 114.13 133.01 109.12 132.12 C 103.93 132.22 98.42 131.24 93.43 132.71 M 128.48 132.68 C 124.63 134.68 125.59 141.06 129.84 141.86 C 134.28 142.14 138.74 141.99 143.19 141.96 C 147.05 142.06 149.50 136.94 146.98 133.99 C 144.90 131.14 141.00 132.18 138.00 132.00 C 134.85 132.26 131.44 131.35 128.48 132.68 M 52.48 226.70 C 47.37 228.39 43.79 233.60 44.01 238.97 C 43.99 265.65 43.99 292.33 44.01 319.00 C 43.61 326.05 49.99 332.35 57.01 331.99 C 78.03 331.97 99.05 332.08 120.07 331.94 C 127.14 331.82 132.71 324.94 132.01 318.02 C 131.99 291.68 132.03 265.34 131.99 238.99 C 132.32 232.40 126.75 226.21 120.11 226.06 C 99.75 225.91 79.39 226.06 59.03 225.99 C 56.84 226.01 54.58 225.95 52.48 226.70 Z" />
<path fill="#000000" opacity="1.00" d=" M 58.47 132.68 C 62.09 131.26 66.18 132.33 69.99 131.99 C 72.59 131.88 75.88 131.80 77.30 134.46 C 79.32 137.49 76.81 142.03 73.19 141.96 C 68.76 141.99 64.31 142.14 59.88 141.87 C 55.60 141.11 54.61 134.68 58.47 132.68 Z" />
<path fill="#000000" opacity="1.00" d=" M 93.43 132.71 C 98.42 131.24 103.93 132.22 109.12 132.12 C 114.13 133.01 114.14 140.96 109.13 141.87 C 104.39 142.09 99.61 142.10 94.87 141.87 C 90.62 141.09 89.62 134.74 93.43 132.71 Z" />
<path fill="#000000" opacity="1.00" d=" M 128.48 132.68 C 131.44 131.35 134.85 132.26 138.00 132.00 C 141.00 132.18 144.90 131.14 146.98 133.99 C 149.50 136.94 147.05 142.06 143.19 141.96 C 138.74 141.99 134.28 142.14 129.84 141.86 C 125.59 141.06 124.63 134.68 128.48 132.68 Z" />
<path fill="#f5c84c" opacity="1.00" d=" M 481.63 157.18 C 489.24 155.69 495.47 149.74 497.00 142.09 C 498.52 149.53 504.52 155.58 512.00 157.01 L 512.00 157.31 C 504.52 158.81 498.46 164.83 496.99 172.33 C 495.51 164.66 489.25 158.67 481.63 157.18 Z" />
<path fill="#5290db" opacity="1.00" d=" M 222.42 180.05 C 222.29 172.77 228.83 166.32 236.10 166.49 C 303.08 166.44 370.07 166.46 437.05 166.48 C 444.41 166.14 451.28 172.59 451.03 180.02 C 451.25 202.26 451.08 224.49 451.12 246.73 C 447.67 246.74 444.23 246.74 440.78 246.73 C 440.74 225.79 440.80 204.85 440.75 183.91 C 441.00 179.81 437.11 176.37 433.08 176.81 C 368.70 176.81 304.32 176.77 239.95 176.82 C 236.06 176.57 232.49 180.04 232.76 183.96 C 232.73 276.98 232.73 370.01 232.76 463.04 C 232.51 466.92 236.06 470.39 239.93 470.12 C 280.37 470.15 320.80 470.12 361.24 470.14 C 362.31 473.91 363.92 477.56 366.47 480.59 C 324.29 480.45 282.10 480.59 239.92 480.52 C 236.12 480.24 231.94 480.63 228.68 478.29 C 224.55 475.72 222.20 470.84 222.40 466.02 C 222.41 370.70 222.35 275.37 222.42 180.05 Z" />
<path fill="#edf4fc" opacity="1.00" d=" M 242.75 186.81 C 305.42 186.80 368.10 186.80 430.77 186.81 C 430.77 206.78 430.77 226.76 430.77 246.73 C 415.55 246.79 400.33 246.63 385.12 246.81 C 378.98 246.95 373.66 250.22 368.76 253.55 C 337.51 253.67 306.24 253.56 274.99 253.60 C 270.78 253.69 266.20 253.03 262.43 255.33 C 258.35 257.61 255.91 262.27 256.10 266.92 C 256.10 276.63 256.04 286.35 256.13 296.07 C 256.03 302.92 262.29 308.84 269.10 308.57 C 299.59 308.63 330.09 308.58 360.58 308.60 C 360.60 313.26 360.59 317.93 360.59 322.60 C 330.06 322.62 299.54 322.57 269.02 322.62 C 262.30 322.35 256.12 328.19 256.13 334.94 C 256.06 345.00 256.06 355.06 256.13 365.12 C 256.05 371.98 262.35 377.87 269.17 377.58 C 299.64 377.63 330.11 377.58 360.58 377.60 C 360.60 382.26 360.59 386.93 360.59 391.60 C 331.39 391.60 302.19 391.61 272.99 391.59 C 269.69 391.60 266.18 391.36 263.16 392.94 C 258.68 395.06 255.89 399.98 256.10 404.90 C 256.10 414.64 256.04 424.38 256.13 434.11 C 256.14 439.11 259.44 443.87 264.11 445.65 C 266.95 446.80 270.06 446.57 273.06 446.61 C 302.23 446.59 331.41 446.61 360.58 446.60 C 360.59 451.11 360.60 455.62 360.58 460.14 C 321.30 460.13 282.03 460.14 242.75 460.13 C 242.74 369.02 242.74 277.91 242.75 186.81 M 260.43 200.71 C 256.61 202.74 257.62 209.10 261.87 209.87 C 266.27 210.14 270.70 209.99 275.11 209.96 C 278.73 210.10 281.31 205.58 279.33 202.52 C 277.94 199.82 274.62 199.87 272.01 199.99 C 268.18 200.34 264.06 199.24 260.43 200.71 M 295.42 200.71 C 291.63 202.74 292.61 209.06 296.84 209.86 C 301.26 210.14 305.71 209.99 310.14 209.96 C 313.79 210.07 316.34 205.48 314.29 202.44 C 312.87 199.82 309.62 199.87 307.04 199.99 C 303.19 200.34 299.06 199.24 295.42 200.71 M 330.48 200.68 C 326.62 202.68 327.59 209.09 331.87 209.87 C 336.27 210.14 340.70 209.99 345.11 209.96 C 348.79 210.10 351.37 205.44 349.26 202.39 C 347.81 199.78 344.55 199.89 341.97 199.99 C 338.17 200.32 334.09 199.27 330.48 200.68 Z" />
<path fill="#85c54b" opacity="1.00" d=" M 480.45 188.68 C 485.17 186.03 491.41 190.87 490.04 196.09 C 489.28 200.93 482.72 203.23 479.10 199.91 C 475.39 197.06 476.16 190.57 480.45 188.68 Z" />
<path fill="#000000" opacity="1.00" d=" M 260.43 200.71 C 264.06 199.24 268.18 200.34 272.01 199.99 C 274.62 199.87 277.94 199.82 279.33 202.52 C 281.31 205.58 278.73 210.10 275.11 209.96 C 270.70 209.99 266.27 210.14 261.87 209.87 C 257.62 209.10 256.61 202.74 260.43 200.71 Z" />
<path fill="#000000" opacity="1.00" d=" M 295.42 200.71 C 299.06 199.24 303.19 200.34 307.04 199.99 C 309.62 199.87 312.87 199.82 314.29 202.44 C 316.34 205.48 313.79 210.07 310.14 209.96 C 305.71 209.99 301.26 210.14 296.84 209.86 C 292.61 209.06 291.63 202.74 295.42 200.71 Z" />
<path fill="#000000" opacity="1.00" d=" M 330.48 200.68 C 334.09 199.27 338.17 200.32 341.97 199.99 C 344.55 199.89 347.81 199.78 349.26 202.39 C 351.37 205.44 348.79 210.10 345.11 209.96 C 340.70 209.99 336.27 210.14 331.87 209.87 C 327.59 209.09 326.62 202.68 330.48 200.68 Z" />
<path fill="#000000" opacity="1.00" d=" M 52.48 226.70 C 54.58 225.95 56.84 226.01 59.03 225.99 C 79.39 226.06 99.75 225.91 120.11 226.06 C 126.75 226.21 132.32 232.40 131.99 238.99 C 132.03 265.34 131.99 291.68 132.01 318.02 C 132.71 324.94 127.14 331.82 120.07 331.94 C 99.05 332.08 78.03 331.97 57.01 331.99 C 49.99 332.35 43.61 326.05 44.01 319.00 C 43.99 292.33 43.99 265.65 44.01 238.97 C 43.79 233.60 47.37 228.39 52.48 226.70 M 55.26 236.37 C 53.92 237.03 53.99 238.70 53.99 239.96 C 54.03 266.35 53.96 292.74 54.02 319.13 C 53.79 320.74 55.31 322.22 56.91 321.98 C 77.64 322.01 98.37 322.01 119.09 321.98 C 120.72 322.21 122.22 320.71 121.98 319.08 C 122.02 292.35 122.02 265.62 121.98 238.90 C 122.21 237.28 120.74 235.80 119.12 236.02 C 98.38 235.98 77.63 235.98 56.89 236.02 C 56.48 236.11 55.66 236.29 55.26 236.37 Z" />
<path fill="#70d6f9" opacity="1.00" d=" M 55.26 236.37 C 55.66 236.29 56.48 236.11 56.89 236.02 C 77.63 235.98 98.38 235.98 119.12 236.02 C 120.74 235.80 122.21 237.28 121.98 238.90 C 122.02 265.62 122.02 292.35 121.98 319.08 C 122.22 320.71 120.72 322.21 119.09 321.98 C 98.37 322.01 77.64 322.01 56.91 321.98 C 55.31 322.22 53.79 320.74 54.02 319.13 C 53.96 292.74 54.03 266.35 53.99 239.96 C 53.99 238.70 53.92 237.03 55.26 236.37 Z" />
<path fill="#f5c84c" opacity="1.00" d=" M 154.02 238.93 C 153.77 237.29 155.24 235.78 156.89 236.02 C 175.39 235.97 193.89 236.01 212.39 236.00 C 212.39 264.67 212.39 293.33 212.39 321.99 C 193.92 321.99 175.44 322.02 156.97 321.98 C 155.30 322.23 153.76 320.72 154.02 319.04 C 153.99 292.34 153.99 265.63 154.02 238.93 Z" />
<path fill="#5290db" opacity="1.00" d=" M 383.14 257.18 C 384.40 256.89 385.68 256.75 386.98 256.74 C 419.31 256.72 451.64 256.76 483.96 256.72 C 493.59 255.65 502.67 264.26 502.00 273.94 C 501.98 337.32 502.02 400.70 501.98 464.07 C 502.20 473.08 493.94 480.97 484.98 480.52 C 453.97 480.55 422.97 480.52 391.96 480.54 C 387.51 480.27 382.67 480.75 378.75 478.24 C 373.76 475.38 370.53 469.76 370.60 464.01 C 370.59 400.36 370.57 336.70 370.61 273.04 C 370.50 265.69 376.00 258.82 383.14 257.18 M 386.34 266.48 C 381.85 268.30 379.09 273.17 379.45 277.95 C 379.46 338.65 379.42 399.34 379.46 460.03 C 379.16 466.27 384.75 471.89 390.99 471.64 C 421.01 471.70 451.03 471.66 481.05 471.66 C 485.39 471.85 489.77 469.55 491.79 465.66 C 493.60 462.41 493.07 458.56 493.15 455.00 C 493.14 397.35 493.14 339.69 493.15 282.04 C 493.07 278.70 493.54 275.14 492.03 272.04 C 490.26 268.20 486.19 265.60 481.97 265.58 C 474.99 265.46 468.00 265.57 461.02 265.53 C 457.65 265.43 454.14 266.29 451.58 268.58 C 448.17 271.36 447.74 276.41 443.96 278.86 C 437.95 283.66 427.96 281.34 424.87 274.25 C 423.14 269.67 418.99 265.92 413.96 265.64 C 407.63 265.38 401.30 265.62 394.97 265.52 C 392.09 265.57 389.06 265.31 386.34 266.48 Z" />
<path fill="#70d6f9" opacity="1.00" d=" M 266.10 266.96 C 265.82 265.23 267.17 263.37 269.04 263.63 C 300.15 263.53 331.26 263.66 362.37 263.57 C 360.69 267.85 360.46 272.48 360.58 277.02 C 360.59 284.21 360.59 291.40 360.59 298.60 C 330.37 298.60 300.15 298.59 269.93 298.60 C 268.26 298.81 266.04 298.00 266.14 295.98 C 266.02 286.31 266.11 276.63 266.10 266.96 Z" />
<path fill="#000000" opacity="1.00" d=" M 386.34 266.48 C 389.06 265.31 392.09 265.57 394.97 265.52 C 401.30 265.62 407.63 265.38 413.96 265.64 C 418.99 265.92 423.14 269.67 424.87 274.25 C 427.96 281.34 437.95 283.66 443.96 278.86 C 447.74 276.41 448.17 271.36 451.58 268.58 C 454.14 266.29 457.65 265.43 461.02 265.53 C 468.00 265.57 474.99 265.46 481.97 265.58 C 486.19 265.60 490.26 268.20 492.03 272.04 C 493.54 275.14 493.07 278.70 493.15 282.04 C 493.14 339.69 493.14 397.35 493.15 455.00 C 493.07 458.56 493.60 462.41 491.79 465.66 C 489.77 469.55 485.39 471.85 481.05 471.66 C 451.03 471.66 421.01 471.70 390.99 471.64 C 384.75 471.89 379.16 466.27 379.46 460.03 C 379.42 399.34 379.46 338.65 379.45 277.95 C 379.09 273.17 381.85 268.30 386.34 266.48 M 389.43 278.97 C 389.46 339.00 389.45 399.03 389.43 459.07 C 389.35 460.09 389.44 461.96 391.02 461.63 C 419.68 461.72 448.34 461.63 477.01 461.67 C 479.04 461.66 481.13 461.86 483.12 461.25 C 483.15 399.46 483.20 337.66 483.09 275.87 C 475.43 275.13 467.67 275.67 459.97 275.58 C 457.44 275.39 457.07 278.41 455.97 280.02 C 452.08 287.08 444.12 291.54 436.08 291.39 C 427.81 291.41 419.72 286.47 416.09 279.01 C 415.28 277.74 414.91 275.58 413.01 275.60 C 405.62 275.47 398.22 275.49 390.83 275.59 C 388.92 275.40 389.58 277.85 389.43 278.97 Z" />
<path fill="#edf4fc" opacity="1.00" d=" M 389.43 278.97 C 389.58 277.85 388.92 275.40 390.83 275.59 C 398.22 275.49 405.62 275.47 413.01 275.60 C 414.91 275.58 415.28 277.74 416.09 279.01 C 419.72 286.47 427.81 291.41 436.08 291.39 C 444.12 291.54 452.08 287.08 455.97 280.02 C 457.07 278.41 457.44 275.39 459.97 275.58 C 467.67 275.67 475.43 275.13 483.09 275.87 C 483.20 337.66 483.15 399.46 483.12 461.25 C 481.13 461.86 479.04 461.66 477.01 461.67 C 448.34 461.63 419.68 461.72 391.02 461.63 C 389.44 461.96 389.35 460.09 389.43 459.07 C 389.45 399.03 389.46 339.00 389.43 278.97 M 452.47 298.69 C 448.63 300.68 449.58 307.04 453.82 307.86 C 458.24 308.15 462.68 307.98 467.11 307.96 C 470.76 308.09 473.33 303.53 471.31 300.48 C 469.90 297.81 466.62 297.87 464.03 297.99 C 460.21 298.33 456.10 297.26 452.47 298.69 M 406.08 325.16 C 400.91 325.50 396.49 330.12 396.35 335.30 C 396.25 340.44 396.27 345.58 396.34 350.72 C 396.40 356.29 401.42 361.13 406.97 361.09 C 426.33 361.19 445.70 361.13 465.07 361.11 C 468.93 361.20 472.82 359.20 474.75 355.81 C 476.78 352.58 476.23 348.61 476.30 344.99 C 476.20 341.28 476.53 337.55 476.07 333.86 C 475.22 328.72 470.22 324.82 465.04 325.08 C 445.39 325.11 425.73 324.95 406.08 325.16 M 406.30 370.41 C 400.87 370.65 396.26 375.60 396.33 381.02 C 396.28 386.03 396.25 391.04 396.35 396.05 C 396.43 401.64 401.52 406.49 407.10 406.36 C 426.39 406.44 445.67 406.39 464.96 406.39 C 470.74 406.73 476.19 401.83 476.25 396.00 C 476.31 390.69 476.40 385.37 476.19 380.06 C 475.81 374.48 470.49 370.03 464.95 370.34 C 445.40 370.37 425.85 370.23 406.30 370.41 M 402.46 416.68 C 398.93 418.35 396.44 422.04 396.35 425.95 C 396.25 430.98 396.28 436.02 396.33 441.06 C 396.30 446.73 401.39 451.73 407.06 451.64 C 426.37 451.70 445.68 451.66 464.98 451.66 C 469.07 451.79 473.17 449.53 475.04 445.85 C 476.95 442.18 476.12 437.90 476.30 433.94 C 476.07 429.49 477.16 424.53 474.55 420.58 C 472.34 417.00 468.03 415.29 463.94 415.59 C 445.61 415.60 427.29 415.61 408.96 415.59 C 406.75 415.59 404.46 415.67 402.46 416.68 Z" />
<path fill="#000000" opacity="1.00" d=" M 452.47 298.69 C 456.10 297.26 460.21 298.33 464.03 297.99 C 466.62 297.87 469.90 297.81 471.31 300.48 C 473.33 303.53 470.76 308.09 467.11 307.96 C 462.68 307.98 458.24 308.15 453.82 307.86 C 449.58 307.04 448.63 300.68 452.47 298.69 Z" />
<path fill="#000000" opacity="1.00" d=" M 406.08 325.16 C 425.73 324.95 445.39 325.11 465.04 325.08 C 470.22 324.82 475.22 328.72 476.07 333.86 C 476.53 337.55 476.20 341.28 476.30 344.99 C 476.23 348.61 476.78 352.58 474.75 355.81 C 472.82 359.20 468.93 361.20 465.07 361.11 C 445.70 361.13 426.33 361.19 406.97 361.09 C 401.42 361.13 396.40 356.29 396.34 350.72 C 396.27 345.58 396.25 340.44 396.35 335.30 C 396.49 330.12 400.91 325.50 406.08 325.16 M 406.34 335.23 C 406.25 340.45 406.30 345.67 406.31 350.89 C 426.24 351.43 446.23 351.04 466.19 351.08 C 466.36 345.76 466.39 340.43 466.17 335.12 C 446.23 335.11 426.27 334.88 406.34 335.23 Z" />
<path fill="#f5c84c" opacity="1.00" d=" M 266.10 335.88 C 265.84 334.21 267.16 332.41 268.95 332.64 C 299.49 332.55 330.04 332.63 360.58 332.60 C 360.60 344.26 360.59 355.93 360.59 367.59 C 330.38 367.61 300.17 367.59 269.96 367.60 C 268.28 367.81 266.04 367.01 266.15 364.98 C 266.02 355.28 266.11 345.58 266.10 335.88 Z" />
<path fill="#70d6f9" opacity="1.00" d=" M 406.34 335.23 C 426.27 334.88 446.23 335.11 466.17 335.12 C 466.39 340.43 466.36 345.76 466.19 351.08 C 446.23 351.04 426.24 351.43 406.31 350.89 C 406.30 345.67 406.25 340.45 406.34 335.23 Z" />
<path fill="#edf4fc" opacity="1.00" d=" M 10.00 354.47 C 77.46 354.47 144.93 354.46 212.39 354.48 C 212.39 372.16 212.39 389.84 212.39 407.52 C 150.95 407.53 89.51 407.55 28.08 407.51 C 18.77 407.46 10.42 399.39 10.07 390.10 C 9.91 378.22 10.05 366.35 10.00 354.47 Z" />
<path fill="#000000" opacity="1.00" d=" M 406.30 370.41 C 425.85 370.23 445.40 370.37 464.95 370.34 C 470.49 370.03 475.81 374.48 476.19 380.06 C 476.40 385.37 476.31 390.69 476.25 396.00 C 476.19 401.83 470.74 406.73 464.96 406.39 C 445.67 406.39 426.39 406.44 407.10 406.36 C 401.52 406.49 396.43 401.64 396.35 396.05 C 396.25 391.04 396.28 386.03 396.33 381.02 C 396.26 375.60 400.87 370.65 406.30 370.41 M 406.48 380.38 C 406.31 385.71 405.92 391.16 406.66 396.44 C 426.51 396.29 446.36 396.53 466.21 396.32 C 466.19 390.99 466.69 385.59 465.96 380.30 C 446.13 380.40 426.31 380.25 406.48 380.38 Z" />
<path fill="#f5c84c" opacity="1.00" d=" M 406.48 380.38 C 426.31 380.25 446.13 380.40 465.96 380.30 C 466.69 385.59 466.19 390.99 466.21 396.32 C 446.36 396.53 426.51 396.29 406.66 396.44 C 405.92 391.16 406.31 385.71 406.48 380.38 Z" />
<path fill="#fc657e" opacity="1.00" d=" M 266.10 404.99 C 265.81 403.26 267.15 401.36 269.04 401.63 C 299.55 401.55 330.06 401.62 360.57 401.60 C 360.60 413.26 360.58 424.93 360.58 436.59 C 330.37 436.61 300.15 436.59 269.94 436.60 C 268.28 436.79 266.04 436.02 266.15 434.01 C 266.01 424.34 266.12 414.66 266.10 404.99 Z" />
<path fill="#000000" opacity="1.00" d=" M 402.46 416.68 C 404.46 415.67 406.75 415.59 408.96 415.59 C 427.29 415.61 445.61 415.60 463.94 415.59 C 468.03 415.29 472.34 417.00 474.55 420.58 C 477.16 424.53 476.07 429.49 476.30 433.94 C 476.12 437.90 476.95 442.18 475.04 445.85 C 473.17 449.53 469.07 451.79 464.98 451.66 C 445.68 451.66 426.37 451.70 407.06 451.64 C 401.39 451.73 396.30 446.73 396.33 441.06 C 396.28 436.02 396.25 430.98 396.35 425.95 C 396.44 422.04 398.93 418.35 402.46 416.68 M 406.42 441.58 C 426.19 441.73 445.97 441.71 465.74 441.59 L 466.23 441.10 C 466.37 435.96 466.32 430.82 466.22 425.68 C 446.37 425.46 426.52 425.72 406.67 425.55 C 405.88 430.82 406.38 436.25 406.42 441.58 Z" />
<path fill="#c7d7e4" opacity="1.00" d=" M 190.77 417.54 C 197.97 417.53 205.18 417.53 212.39 417.54 C 212.39 431.13 212.40 444.73 212.39 458.33 C 205.18 458.33 197.97 458.34 190.77 458.33 C 190.76 444.73 190.76 431.13 190.77 417.54 Z" />
<path fill="#fc657e" opacity="1.00" d=" M 406.42 441.58 C 406.38 436.25 405.88 430.82 406.67 425.55 C 426.52 425.72 446.37 425.46 466.22 425.68 C 466.32 430.82 466.37 435.96 466.23 441.10 L 465.74 441.59 C 445.97 441.71 426.19 441.73 406.42 441.58 Z" />
<path fill="#f5c84c" opacity="1.00" d=" M 46.44 432.69 C 50.76 430.29 56.60 434.12 56.17 439.02 C 56.18 444.00 49.92 447.29 45.83 444.43 C 41.44 441.92 41.83 434.73 46.44 432.69 Z" />
<path fill="#70d6f9" opacity="1.00" d=" M 96.89 437.91 C 99.11 434.90 104.04 434.70 106.49 437.53 C 108.81 439.92 108.05 443.47 108.17 446.46 C 111.14 446.58 114.63 445.84 117.03 448.09 C 119.96 450.54 119.75 455.61 116.63 457.81 C 114.22 459.68 110.99 458.92 108.17 459.07 C 108.04 461.96 108.78 465.32 106.74 467.74 C 104.44 470.74 99.45 470.80 97.07 467.86 C 94.92 465.45 95.67 462.01 95.55 459.08 C 92.50 458.94 88.85 459.75 86.48 457.29 C 83.80 454.83 84.01 450.08 86.91 447.88 C 89.31 445.85 92.66 446.60 95.54 446.47 C 95.68 443.61 94.94 440.32 96.89 437.91 Z" />
<path fill="#edf4fc" opacity="1.00" d=" M 143.37 474.01 C 143.50 470.69 146.68 468.07 149.94 468.34 C 170.76 468.32 191.57 468.33 212.38 468.34 C 212.79 472.72 214.23 477.02 216.83 480.61 C 194.28 480.39 171.72 480.66 149.18 480.48 C 145.88 480.43 143.06 477.30 143.37 474.01 Z" />
</svg>
