<?xml version="1.0" encoding="UTF-8" ?>
<!DOCTYPE svg PUBLIC "-//W3C//DTD SVG 1.1//EN" "http://www.w3.org/Graphics/SVG/1.1/DTD/svg11.dtd">
<svg width="360pt" height="360pt" viewBox="0 0 360 360" version="1.1" xmlns="http://www.w3.org/2000/svg">
<path fill="#0079d6" opacity="1.00" d=" M 155.50 1.78 C 166.96 0.68 178.47 1.20 189.95 0.80 C 219.68 2.38 249.76 6.76 277.29 18.59 C 287.26 23.06 297.12 28.34 304.97 36.07 C 310.22 41.36 314.80 48.21 314.43 55.98 C 314.43 139.32 314.43 222.66 314.43 305.99 C 314.87 314.58 309.15 321.86 303.10 327.29 C 292.81 336.26 280.01 341.58 267.36 346.27 C 242.45 354.69 216.13 358.28 189.93 359.15 C 181.96 360.13 173.95 358.94 165.96 359.00 C 138.67 357.76 111.32 353.12 85.79 343.19 C 74.69 338.30 63.38 332.94 54.85 324.08 C 49.87 319.37 45.79 313.05 45.72 305.99 C 45.73 222.00 45.72 138.00 45.73 54.01 C 45.65 46.89 49.59 40.39 54.53 35.54 C 62.86 27.16 73.63 21.89 84.33 17.22 C 107.01 8.22 131.24 3.64 155.50 1.78 M 162.35 20.54 C 144.04 21.94 125.54 23.97 108.11 30.10 C 100.64 32.56 93.10 35.86 87.54 41.60 C 84.43 44.69 83.02 49.80 85.24 53.79 C 87.47 58.43 92.02 61.21 96.27 63.75 C 106.16 69.08 117.18 71.81 128.09 74.14 C 155.06 79.09 182.75 79.99 210.02 77.24 C 228.33 75.16 247.11 72.29 263.65 63.69 C 268.68 60.77 274.36 56.96 275.50 50.84 C 276.55 45.61 272.39 41.24 268.59 38.31 C 261.15 33.08 252.47 30.01 243.79 27.54 C 217.27 20.57 189.62 19.49 162.35 20.54 M 92.16 164.08 C 87.85 169.55 85.73 177.18 88.03 183.93 C 90.19 191.96 97.69 197.13 105.15 199.79 C 109.10 201.45 114.12 202.74 115.94 207.09 C 116.87 211.65 111.70 213.66 108.03 213.40 C 101.00 212.77 94.12 210.26 88.46 206.02 C 87.96 212.61 88.45 219.25 88.25 225.86 C 99.25 229.91 111.57 230.68 122.94 227.79 C 129.80 226.11 136.29 221.45 138.68 214.61 C 141.58 207.49 140.47 198.61 134.94 193.06 C 130.03 187.79 123.10 185.30 116.64 182.52 C 114.13 181.30 111.26 179.78 110.32 176.95 C 110.07 174.14 112.54 171.98 115.13 171.58 C 122.47 170.39 129.82 172.73 136.31 176.01 C 136.34 169.93 136.30 163.86 136.34 157.78 C 127.60 154.94 118.25 154.51 109.18 155.57 C 102.85 156.60 96.40 159.08 92.16 164.08 M 161.61 160.57 C 151.85 166.49 145.95 177.67 145.23 188.92 C 144.39 198.07 146.01 207.80 151.68 215.26 C 157.72 223.89 168.00 228.67 178.29 229.64 C 183.86 235.08 188.89 241.09 194.36 246.67 C 203.54 246.73 212.74 246.85 221.92 246.60 C 214.48 240.24 206.99 233.93 199.54 227.58 C 198.92 227.05 197.11 225.55 198.94 225.15 C 208.00 220.62 214.35 211.68 216.46 201.85 C 218.98 189.95 217.35 176.39 209.25 166.89 C 197.94 153.19 176.29 151.63 161.61 160.57 M 228.00 156.00 C 228.00 180.16 228.00 204.31 227.99 228.47 C 243.41 228.21 258.83 228.24 274.25 228.46 C 274.34 222.71 274.41 216.95 274.22 211.20 C 266.02 211.34 257.82 211.26 249.62 211.25 C 249.72 192.85 249.46 174.44 249.77 156.04 C 242.51 155.90 235.25 156.15 228.00 156.00 Z" />
<path fill="#0079d6" opacity="1.00" d=" M 176.42 174.62 C 180.66 172.87 186.14 173.04 189.47 176.55 C 193.55 180.92 194.62 187.20 194.63 192.97 C 194.48 198.80 193.09 205.46 187.99 208.99 C 183.32 212.25 176.57 211.44 172.64 207.41 C 167.96 201.49 167.47 193.34 168.69 186.17 C 169.34 181.46 172.00 176.69 176.42 174.62 Z" />
</svg>
