<svg xmlns="http://www.w3.org/2000/svg" viewBox="0 0 127 85.58"><defs><style>.a61ce9e3-db06-420b-bde3-181c4498a6b0,.b4f7c933-987d-45ed-a25d-668ba98fb57b{fill:#1e478f;}.b4f7c933-987d-45ed-a25d-668ba98fb57b{fill-rule:evenodd;}.a3f8d99f-22ee-4970-8322-d08e67b9961b{fill:#df2429;}</style></defs><title>WSIIII</title><g id="f712da9e-dbff-47bb-89ba-56203e193243" data-name="Layer 2"><g id="ee293e0f-09bf-4cfd-8a86-d47b127c3361" data-name="Layer 1"><polygon class="b4f7c933-987d-45ed-a25d-668ba98fb57b" points="12.71 75.46 13.91 75.46 15.67 81.73 17.25 75.46 18.13 75.46 19.71 81.73 21.48 75.46 22.67 75.46 20.22 83.6 19.15 83.6 17.69 77.52 16.21 83.6 15.17 83.6 12.71 75.46"></polygon><path class="b4f7c933-987d-45ed-a25d-668ba98fb57b" d="M23.64,80.51a2.18,2.18,0,0,0,.58,1.54,2,2,0,0,0,1.46.62,1.91,1.91,0,0,0,1.43-.62,2.2,2.2,0,0,0,.58-1.56A2.16,2.16,0,0,0,27.11,79a1.92,1.92,0,0,0-1.44-.62,2,2,0,0,0-1.45.63,2.18,2.18,0,0,0-.58,1.54m-1.14,0a3.49,3.49,0,0,1,.22-1.23,3.3,3.3,0,0,1,.66-1,3.47,3.47,0,0,1,1-.77,2.91,2.91,0,0,1,1.22-.26,2.94,2.94,0,0,1,1.23.25,3.11,3.11,0,0,1,1,.71,3.55,3.55,0,0,1,.7,1,3.42,3.42,0,0,1,.23,1.21,3.33,3.33,0,0,1-.22,1.23,3.27,3.27,0,0,1-.63,1,3.51,3.51,0,0,1-1.05.77,3,3,0,0,1-1.25.27,2.91,2.91,0,0,1-1.23-.25,3.06,3.06,0,0,1-1-.71,4.12,4.12,0,0,1-.68-1,3.57,3.57,0,0,1-.23-1.23"></path><path class="b4f7c933-987d-45ed-a25d-668ba98fb57b" d="M30.9,83.6H29.8V77.44h1v.73a1.83,1.83,0,0,1,.62-.62,1.62,1.62,0,0,1,.83-.2V78.5a1.42,1.42,0,0,0-1.06.45,1.82,1.82,0,0,0-.33,1.22V83.6Z"></path><path class="b4f7c933-987d-45ed-a25d-668ba98fb57b" d="M33.93,80.48a2.17,2.17,0,0,0,.6,1.56,2.07,2.07,0,0,0,1.53.63A2,2,0,0,0,37.49,82a2.07,2.07,0,0,0,.62-1.48A2.16,2.16,0,0,0,37.49,79,2,2,0,0,0,36,78.36a2.08,2.08,0,0,0-2.1,2.12m4.12,3.12v-.77a2.72,2.72,0,0,1-.94.67,2.87,2.87,0,0,1-1.11.23,3.15,3.15,0,0,1-3.22-3.24A3.17,3.17,0,0,1,33,79.26a3.3,3.3,0,0,1,1.66-1.74,3.52,3.52,0,0,1,1.25-.23,3.28,3.28,0,0,1,1.16.21,3,3,0,0,1,1,.69V75.46h1.11V83.6Z"></path><polygon class="b4f7c933-987d-45ed-a25d-668ba98fb57b" points="40.82 83.6 40.82 78.45 39.96 78.45 39.96 77.44 40.82 77.44 40.82 75.46 41.93 75.46 41.93 77.44 42.79 77.44 42.79 78.45 41.93 78.45 41.93 83.6 40.82 83.6"></polygon><path class="b4f7c933-987d-45ed-a25d-668ba98fb57b" d="M48.37,79.94a2.18,2.18,0,0,0-.72-1.18,1.85,1.85,0,0,0-1.21-.42,2,2,0,0,0-1.26.42,2.21,2.21,0,0,0-.73,1.18Zm-4,1a2.18,2.18,0,0,0,.7,1.24,2,2,0,0,0,1.33.47,1.94,1.94,0,0,0,1-.27,1.85,1.85,0,0,0,.71-.73h1.25A3.38,3.38,0,0,1,48.2,83.2a3,3,0,0,1-1.76.54,3.16,3.16,0,0,1-1.25-.22,3.39,3.39,0,0,1-1-.72,3.21,3.21,0,0,1-.68-1.06,3.26,3.26,0,0,1-.25-1.23,3.47,3.47,0,0,1,.23-1.21,3.2,3.2,0,0,1,.65-1,3.57,3.57,0,0,1,1-.76,3.24,3.24,0,0,1,1.25-.25,3.18,3.18,0,0,1,1.52.39,3.11,3.11,0,0,1,1.54,2,4.51,4.51,0,0,1,.12,1.15v.17H44.41Z"></path><polygon class="b4f7c933-987d-45ed-a25d-668ba98fb57b" points="53.91 83.6 52.49 81.27 51 83.6 49.78 83.6 51.85 80.4 50.02 77.44 51.26 77.44 52.53 79.56 53.84 77.44 55.12 77.44 53.17 80.38 55.14 83.6 53.91 83.6"></polygon><polygon class="b4f7c933-987d-45ed-a25d-668ba98fb57b" points="56.13 83.6 56.13 78.45 55.26 78.45 55.26 77.44 56.13 77.44 56.13 75.46 57.23 75.46 57.23 77.44 58.1 77.44 58.1 78.45 57.23 78.45 57.23 83.6 56.13 83.6"></polygon><path class="b4f7c933-987d-45ed-a25d-668ba98fb57b" d="M61.79,81.24h1.06a1.53,1.53,0,0,0,.37,1,1.26,1.26,0,0,0,.9.39,1.29,1.29,0,0,0,1.35-1.4,1.24,1.24,0,0,0-.27-.85,2.58,2.58,0,0,0-1.13-.56.62.62,0,0,0-.14,0,2.64,2.64,0,0,1-1.49-.9,2,2,0,0,1-.3-.58,2.12,2.12,0,0,1-.11-.66,2.33,2.33,0,0,1,.63-1.7,2.17,2.17,0,0,1,1.62-.64,2,2,0,0,1,1.5.59,2.28,2.28,0,0,1,.63,1.57h-1.1a1.11,1.11,0,0,0-.33-.79,1.09,1.09,0,0,0-1.54,0,1.21,1.21,0,0,0-.3.85,1,1,0,0,0,.06.35.68.68,0,0,0,.17.31,2.32,2.32,0,0,0,1,.49,4.83,4.83,0,0,1,.55.15,2.47,2.47,0,0,1,1.22.88,2.31,2.31,0,0,1,.41,1.39,2.68,2.68,0,0,1-.66,1.9,2.29,2.29,0,0,1-1.77.71,2.19,2.19,0,0,1-1.69-.69,2.62,2.62,0,0,1-.67-1.82"></path><polygon class="b4f7c933-987d-45ed-a25d-668ba98fb57b" points="66.99 77.44 68.18 77.44 69.83 82.01 71.62 77.44 72.82 77.44 69.51 85.58 68.36 85.58 69.2 83.42 66.99 77.44"></polygon><path class="b4f7c933-987d-45ed-a25d-668ba98fb57b" d="M73,81.6h1a1.14,1.14,0,0,0,.26.8.9.9,0,0,0,1.32.08.79.79,0,0,0,.24-.61.86.86,0,0,0-.17-.53,1.63,1.63,0,0,0-.57-.4l-.38-.13a4.24,4.24,0,0,1-.83-.4,1.57,1.57,0,0,1-.48-.59A1.79,1.79,0,0,1,73.3,79a1.72,1.72,0,0,1,.53-1.25,1.69,1.69,0,0,1,1.28-.54,1.71,1.71,0,0,1,1.24.46A1.92,1.92,0,0,1,76.87,79H75.8a.78.78,0,0,0-.22-.51.72.72,0,0,0-1,0,.7.7,0,0,0-.19.51c0,.33.29.61.88.85l.4.14a2,2,0,0,1,1,.72,2,2,0,0,1-.26,2.5,1.92,1.92,0,0,1-1.4.54,1.77,1.77,0,0,1-1.38-.57A2.48,2.48,0,0,1,73,81.6"></path><polygon class="b4f7c933-987d-45ed-a25d-668ba98fb57b" points="78.28 83.6 78.28 78.45 77.41 78.45 77.41 77.44 78.28 77.44 78.28 75.46 79.38 75.46 79.38 77.44 80.25 77.44 80.25 78.45 79.38 78.45 79.38 83.6 78.28 83.6"></polygon><path class="b4f7c933-987d-45ed-a25d-668ba98fb57b" d="M85.83,79.94a2.18,2.18,0,0,0-.72-1.18,1.9,1.9,0,0,0-1.22-.42,2,2,0,0,0-1.25.42,2.21,2.21,0,0,0-.73,1.18Zm-4,1a2.13,2.13,0,0,0,.7,1.24,2,2,0,0,0,1.32.47,1.89,1.89,0,0,0,1-.27,1.73,1.73,0,0,0,.71-.73h1.26a3.45,3.45,0,0,1-1.19,1.55,3,3,0,0,1-1.77.54,3.19,3.19,0,0,1-1.25-.22,3.56,3.56,0,0,1-1-.72,3.74,3.74,0,0,1-.67-1.06,3.42,3.42,0,0,1,0-2.44,3.17,3.17,0,0,1,.64-1,3.61,3.61,0,0,1,1-.76,3.21,3.21,0,0,1,1.25-.25,3.17,3.17,0,0,1,1.51.39,3,3,0,0,1,1.15,1,3.59,3.59,0,0,1,.4.91A5,5,0,0,1,87,80.76v.17H81.87Z"></path><path class="b4f7c933-987d-45ed-a25d-668ba98fb57b" d="M91.77,80.49a3.1,3.1,0,0,0-.32-1.63,1.13,1.13,0,0,0-1-.52,1.22,1.22,0,0,0-1,.52,2.9,2.9,0,0,0-.33,1.59V83.6H88V77.44h1v.74a2,2,0,0,1,.69-.63,1.76,1.76,0,0,1,.88-.2,2,2,0,0,1,1.1.25,2,2,0,0,1,.74.8,1.91,1.91,0,0,1,.75-.79,2.21,2.21,0,0,1,1.16-.26A2.11,2.11,0,0,1,96,78a2.56,2.56,0,0,1,.64,1.81v3.75H95.5V80a1.84,1.84,0,0,0-.35-1.21,1.18,1.18,0,0,0-1-.45,1.16,1.16,0,0,0-1,.47,2.91,2.91,0,0,0-.31,1.57V83.6H91.77V80.49Z"></path><path class="b4f7c933-987d-45ed-a25d-668ba98fb57b" d="M97.5,81.6h1a1.19,1.19,0,0,0,.27.8.87.87,0,0,0,.7.33.83.83,0,0,0,.62-.25.76.76,0,0,0,.25-.61.86.86,0,0,0-.17-.53,1.54,1.54,0,0,0-.57-.4l-.38-.13a3.54,3.54,0,0,1-.82-.4,1.63,1.63,0,0,1-.5-.59,1.94,1.94,0,0,1-.16-.78,1.75,1.75,0,0,1,.52-1.25,1.72,1.72,0,0,1,1.29-.54,1.75,1.75,0,0,1,1.25.46,1.91,1.91,0,0,1,.5,1.29h-1a.84.84,0,0,0-.23-.51.69.69,0,0,0-.53-.21.65.65,0,0,0-.49.21.71.71,0,0,0-.2.51c0,.33.3.61.9.85l.39.14a2,2,0,0,1,1,.72,1.85,1.85,0,0,1,.29,1.13,1.82,1.82,0,0,1-.55,1.37,1.92,1.92,0,0,1-1.41.54,1.82,1.82,0,0,1-1.38-.57,2.47,2.47,0,0,1-.57-1.58"></path><path class="b4f7c933-987d-45ed-a25d-668ba98fb57b" d="M102.8,84.94v-.7a.33.33,0,0,0,.3-.18.7.7,0,0,0,.1-.43v-.1h-.4V82.22h1.1v1.2a1.72,1.72,0,0,1-.26,1,1.29,1.29,0,0,1-.84.48"></path><rect class="a61ce9e3-db06-420b-bde3-181c4498a6b0" x="108.98" y="75.46" width="1.17" height="8.14"></rect><path class="b4f7c933-987d-45ed-a25d-668ba98fb57b" d="M112.61,83.6h-1.1V77.44h1.06v.72a2.1,2.1,0,0,1,1.73-.81,2.5,2.5,0,0,1,1.85.69,3.07,3.07,0,0,1,.64,2V83.6h-1.11V80.33a2.31,2.31,0,0,0-.36-1.44A1.55,1.55,0,0,0,113,79a3.42,3.42,0,0,0-.39,1.85V83.6Z"></path><path class="b4f7c933-987d-45ed-a25d-668ba98fb57b" d="M123.91,81.5a3.45,3.45,0,0,1-1.16,1.69,3,3,0,0,1-1.84.56,3.13,3.13,0,0,1-1.25-.23,3.29,3.29,0,0,1-1-.72,3.34,3.34,0,0,1-.66-1,3.18,3.18,0,0,1-.25-1.23,3.23,3.23,0,0,1,.22-1.2,3.1,3.1,0,0,1,.65-1,3.13,3.13,0,0,1,2.34-1,2.9,2.9,0,0,1,1.82.59,3.28,3.28,0,0,1,1.14,1.64h-1.22a2.22,2.22,0,0,0-.74-.85,2,2,0,0,0-1.08-.28,1.85,1.85,0,0,0-1.41.62,2.19,2.19,0,0,0-.58,1.53,2.16,2.16,0,0,0,.59,1.54,2,2,0,0,0,1.44.62,2.17,2.17,0,0,0,1.06-.3,2.29,2.29,0,0,0,.72-.87Z"></path><rect class="a61ce9e3-db06-420b-bde3-181c4498a6b0" x="125.44" y="82.22" width="1.11" height="1.38"></rect><path class="b4f7c933-987d-45ed-a25d-668ba98fb57b" d="M121.19,22.87a3.68,3.68,0,0,0-3.38,3.91,3.4,3.4,0,1,0,6.73,0,3.67,3.67,0,0,0-3.35-3.91"></path><path class="a3f8d99f-22ee-4970-8322-d08e67b9961b" d="M121.19,22.87a3.68,3.68,0,0,0-3.38,3.91,3.4,3.4,0,1,0,6.73,0A3.67,3.67,0,0,0,121.19,22.87Z"></path><path class="a61ce9e3-db06-420b-bde3-181c4498a6b0" d="M109.4,41.54a8.43,8.43,0,0,1,.6,1.61,14,14,0,0,1-.58,8.29.25.25,0,0,1,0,.07V70.8H127V35.89c-7,.64-14.58-2.53-17.24-6.19l-.36,0Z"></path><path class="a61ce9e3-db06-420b-bde3-181c4498a6b0" d="M127,17.37V12.63H109.4v2a12.07,12.07,0,0,1,3.33,2.1,8.94,8.94,0,0,1,2.16,3.08c4.54-2.62,9.67-2.57,12.11-2.42"></path><path class="a3f8d99f-22ee-4970-8322-d08e67b9961b" d="M112.73,16.71a11.84,11.84,0,0,0-3.33-2.1c-2.94-1.26-6.93-1.91-12-1.91a42.15,42.15,0,0,0-14.74,2.21c-.22.07-.44.16-.65.25L75.68,44.4A52.31,52.31,0,0,0,83,46.69c4.36,1,7,2.1,7.89,3.24a3.89,3.89,0,0,1,.59,3.91,8.1,8.1,0,0,1-3.41,4,11.42,11.42,0,0,1-6.41,1.74q-5.06,0-6.59-3.39c-.63-1.4-.67-3.45-.12-6.12l-.55,0-4.37,20a54.85,54.85,0,0,0,7.56.47,41.52,41.52,0,0,0,14.52-2.34A30.73,30.73,0,0,0,103,61.36a25.94,25.94,0,0,0,6.43-9.85s0,0,0-.07a14.17,14.17,0,0,0,.58-8.29,9.2,9.2,0,0,0-.61-1.61,11.57,11.57,0,0,0-4.51-4.6c-2.76-1.67-7.68-3.32-14.82-4.95-2.89-.63-4.61-1.31-5.19-2a2.32,2.32,0,0,1-.45-2.4,6.18,6.18,0,0,1,2.62-3.13,9.18,9.18,0,0,1,5.08-1.27q3.7,0,5.24,1.71c1,1.16,1.3,3,.89,5.5l11.14-.62.37,0,5.38-.3q1.29-5.87-.26-9.61a8.94,8.94,0,0,0-2.16-3.08"></path><polygon class="a61ce9e3-db06-420b-bde3-181c4498a6b0" points="75.68 44.4 82.06 15.16 82.61 12.63 65.47 12.63 59.19 45.99 50.16 12.63 32.87 12.63 23.69 45.83 17.57 12.63 0.26 12.63 13.43 71.25 31.34 71.25 34.07 61.44 41.75 34.05 52 71.25 69.82 71.25 70.04 70.13 74.42 50.11 75.68 44.4"></polygon><polygon class="a61ce9e3-db06-420b-bde3-181c4498a6b0" points="3.96 8.42 3.24 8.42 0 0 1.28 0 3.59 6.26 5.91 0 7.18 0 3.96 8.42"></polygon><path class="a61ce9e3-db06-420b-bde3-181c4498a6b0" d="M12.13,8.42V7.65a3.09,3.09,0,0,1-1,.68A3,3,0,0,1,10,8.57a3.23,3.23,0,0,1-2.4-1,3.33,3.33,0,0,1-.95-2.4,3.67,3.67,0,0,1,.23-1.28,3.09,3.09,0,0,1,.69-1,3.06,3.06,0,0,1,2.35-1,2.85,2.85,0,0,1,1.21.25,3,3,0,0,1,1,.7V2h1.15V8.42ZM7.84,5.2a2.19,2.19,0,0,0,.64,1.61,2.1,2.1,0,0,0,1.57.67,2.06,2.06,0,0,0,1.49-.67,2.05,2.05,0,0,0,.64-1.54,2.18,2.18,0,0,0-.63-1.59A2,2,0,0,0,10,3,2.17,2.17,0,0,0,7.84,5.2"></path><rect class="a61ce9e3-db06-420b-bde3-181c4498a6b0" x="14.6" width="1.15" height="8.42"></rect><path class="a61ce9e3-db06-420b-bde3-181c4498a6b0" d="M22.41,8.42H21.3V7.7a2,2,0,0,1-.76.65,2.25,2.25,0,0,1-.95.22,2.38,2.38,0,0,1-1.86-.75,3.06,3.06,0,0,1-.66-2.1V2.05h1.16V5.38a2.67,2.67,0,0,0,.36,1.54,1.22,1.22,0,0,0,1.07.53,1.56,1.56,0,0,0,.81-.22,1.31,1.31,0,0,0,.56-.6,1.79,1.79,0,0,0,.18-.58A7.25,7.25,0,0,0,21.26,5V2.05H22.4V8.42Z"></path><path class="a61ce9e3-db06-420b-bde3-181c4498a6b0" d="M24.64,5.67A2.24,2.24,0,0,0,25.37,7a2,2,0,0,0,1.37.5,2,2,0,0,0,1-.28,1.87,1.87,0,0,0,.74-.76H29.8A3.57,3.57,0,0,1,28.57,8a3.34,3.34,0,0,1-3.12.31,3.37,3.37,0,0,1-1.07-.74,3.43,3.43,0,0,1-.69-1.09,3.32,3.32,0,0,1-.26-1.27A3.12,3.12,0,0,1,23.67,4a3.27,3.27,0,0,1,.67-1.08,3.38,3.38,0,0,1,1.06-.79,3.31,3.31,0,0,1,1.3-.25,3,3,0,0,1,1.57.4,3.47,3.47,0,0,1,1.18,1.08,3.05,3.05,0,0,1,.41.94A4.86,4.86,0,0,1,30,5.48v.19Zm4.11-1A2.31,2.31,0,0,0,28,3.41,2,2,0,0,0,26.74,3a2,2,0,0,0-1.29.44,2.28,2.28,0,0,0-.77,1.2Z"></path><rect class="a61ce9e3-db06-420b-bde3-181c4498a6b0" x="30.85" y="4.69" width="2.88" height="1.07"></rect><path class="a61ce9e3-db06-420b-bde3-181c4498a6b0" d="M35.9,6,35,8.42H33.67L37,0h1.18l3.29,8.42H40.1L39.18,6Zm2.84-1.18-1.19-3.2-1.21,3.2Z"></path><path class="a61ce9e3-db06-420b-bde3-181c4498a6b0" d="M47,8.42V7.65a3.25,3.25,0,0,1-1,.68,3,3,0,0,1-1.16.24,3.24,3.24,0,0,1-2.38-1,3.29,3.29,0,0,1-1-2.4,3.47,3.47,0,0,1,.25-1.28,3.34,3.34,0,0,1,.66-1,3.27,3.27,0,0,1,1.06-.75,3.17,3.17,0,0,1,1.3-.25,2.84,2.84,0,0,1,1.2.25,3.21,3.21,0,0,1,1,.7V0h1.14V8.42ZM42.7,5.2a2.18,2.18,0,0,0,.63,1.61,2.13,2.13,0,0,0,1.56.67,2,2,0,0,0,1.49-.67A2.1,2.1,0,0,0,47,5.27a2.23,2.23,0,0,0-.64-1.59A2,2,0,0,0,44.87,3,2.15,2.15,0,0,0,42.7,5.2"></path><path class="a61ce9e3-db06-420b-bde3-181c4498a6b0" d="M54.6,8.42V7.65a3.09,3.09,0,0,1-1,.68,3,3,0,0,1-1.15.24,3.21,3.21,0,0,1-2.39-1,3.29,3.29,0,0,1-.95-2.4,3.68,3.68,0,0,1,.24-1.28,3.37,3.37,0,0,1,.67-1,3.17,3.17,0,0,1,1.06-.75,3.13,3.13,0,0,1,1.29-.25,2.84,2.84,0,0,1,1.2.25,3.1,3.1,0,0,1,1,.7V0h1.16V8.42ZM50.32,5.2A2.18,2.18,0,0,0,51,6.81a2.15,2.15,0,0,0,1.57.67A2.08,2.08,0,0,0,54,6.81a2.09,2.09,0,0,0,.64-1.54A2.19,2.19,0,0,0,54,3.68,2,2,0,0,0,52.51,3,2.23,2.23,0,0,0,51,3.63a2.15,2.15,0,0,0-.63,1.57"></path><path class="a61ce9e3-db06-420b-bde3-181c4498a6b0" d="M57.94,5.67A2.23,2.23,0,0,0,58.66,7a2.1,2.1,0,0,0,2.41.22,1.87,1.87,0,0,0,.74-.76H63.1A3.71,3.71,0,0,1,61.87,8,3.17,3.17,0,0,1,60,8.58a3.24,3.24,0,0,1-1.3-.25,3.41,3.41,0,0,1-1-.74A3.64,3.64,0,0,1,57,6.5,3.4,3.4,0,0,1,57,4a3,3,0,0,1,.67-1.08,3.42,3.42,0,0,1,1.07-.79A3.27,3.27,0,0,1,60,1.87a3,3,0,0,1,1.55.4,3.21,3.21,0,0,1,1.61,2,5.42,5.42,0,0,1,.13,1.19v.19Zm4.09-1a2.35,2.35,0,0,0-.73-1.22A2,2,0,0,0,60,3a2.09,2.09,0,0,0-1.31.44A2.27,2.27,0,0,0,58,4.63Z"></path><path class="a61ce9e3-db06-420b-bde3-181c4498a6b0" d="M69.42,8.42V7.65a3,3,0,0,1-1,.68,3,3,0,0,1-1.16.24,3.22,3.22,0,0,1-2.38-1A3.29,3.29,0,0,1,64,5.2a3.67,3.67,0,0,1,.23-1.28,3.22,3.22,0,0,1,.68-1,3.46,3.46,0,0,1,1-.75,3.17,3.17,0,0,1,1.3-.25,2.87,2.87,0,0,1,1.2.25,3.17,3.17,0,0,1,1,.7V0h1.16V8.42ZM65.15,5.2a2.18,2.18,0,0,0,.63,1.61,2.12,2.12,0,0,0,1.57.67,2,2,0,0,0,1.49-.67,2.14,2.14,0,0,0,.65-1.54,2.23,2.23,0,0,0-.64-1.59A2,2,0,0,0,67.32,3a2.18,2.18,0,0,0-1.54.63,2.15,2.15,0,0,0-.63,1.57"></path><path class="a61ce9e3-db06-420b-bde3-181c4498a6b0" d="M77.66,8.42H75.3V0H78a4.1,4.1,0,0,1,3,1.17,4.16,4.16,0,0,1,1.17,3.07,4.29,4.29,0,0,1-.44,1.94,4,4,0,0,1-1.26,1.5,4,4,0,0,1-1.18.56,6.38,6.38,0,0,1-1.7.18M76.48,7.28H78a3,3,0,0,0,2.22-.82A3,3,0,0,0,81,4.24,3,3,0,0,0,80.15,2a3.44,3.44,0,0,0-2.42-.81H76.48V7.28Z"></path><path class="a61ce9e3-db06-420b-bde3-181c4498a6b0" d="M84.44,1.3H83.3V0h1.14Zm-1.14.75h1.14V8.42H83.3Z"></path><path class="a61ce9e3-db06-420b-bde3-181c4498a6b0" d="M85.38,6.36h1.06a1.28,1.28,0,0,0,.28.83.92.92,0,0,0,.72.32,1,1,0,0,0,.65-.24.82.82,0,0,0,.26-.64.86.86,0,0,0-.18-.56,1.49,1.49,0,0,0-.6-.39l-.4-.15a3.29,3.29,0,0,1-.85-.41,1.84,1.84,0,0,1-.5-.6,1.91,1.91,0,0,1-.16-.8,1.74,1.74,0,0,1,.54-1.31,1.73,1.73,0,0,1,1.32-.55,1.8,1.8,0,0,1,1.3.46,1.93,1.93,0,0,1,.53,1.34H88.24a.73.73,0,0,0-.77-.74.67.67,0,0,0-.51.22.68.68,0,0,0-.21.51c0,.36.31.65.92.87.18.07.31.14.41.17a2.16,2.16,0,0,1,1,.73,1.91,1.91,0,0,1,.31,1.17A1.83,1.83,0,0,1,88.86,8a2,2,0,0,1-1.46.58A1.8,1.8,0,0,1,86,8a2.44,2.44,0,0,1-.6-1.62"></path><polygon class="a61ce9e3-db06-420b-bde3-181c4498a6b0" points="90.8 8.42 90.8 3.08 89.9 3.08 89.9 2.05 90.8 2.05 90.8 0 91.94 0 91.94 2.05 92.85 2.05 92.85 3.08 91.94 3.08 91.94 8.42 90.8 8.42"></polygon><path class="a61ce9e3-db06-420b-bde3-181c4498a6b0" d="M94.83,8.42H93.68V2.05h1.09V2.8a1.89,1.89,0,0,1,.63-.63A1.64,1.64,0,0,1,96.26,2V3.14a1.68,1.68,0,0,0-1.1.46,2,2,0,0,0-.33,1.28V8.42Z"></path><path class="a61ce9e3-db06-420b-bde3-181c4498a6b0" d="M98.22,1.3H97.08V0h1.14Zm-1.14.75h1.14V8.42H97.08Z"></path><path class="a61ce9e3-db06-420b-bde3-181c4498a6b0" d="M100.72,7.65v.77H99.56V0h1.15V2.82a2.81,2.81,0,0,1,1-.69,2.8,2.8,0,0,1,1.2-.25,3.26,3.26,0,0,1,1.31.25,3.22,3.22,0,0,1,1,.74,3.18,3.18,0,0,1,.67,1,3.54,3.54,0,0,1,.24,1.28,3.28,3.28,0,0,1-3.33,3.37,3,3,0,0,1-1.16-.24,3.16,3.16,0,0,1-1-.68m0-2.38a2.06,2.06,0,0,0,.65,1.54,2,2,0,0,0,1.48.67,2.07,2.07,0,0,0,1.55-.66A2.23,2.23,0,0,0,105,5.2a2.09,2.09,0,0,0-.65-1.55A2.06,2.06,0,0,0,102.81,3a1.93,1.93,0,0,0-1.5.67,2.23,2.23,0,0,0-.64,1.6"></path><path class="a61ce9e3-db06-420b-bde3-181c4498a6b0" d="M112.51,8.42h-1.1V7.7a2.1,2.1,0,0,1-.76.65,2.31,2.31,0,0,1-.94.22,2.37,2.37,0,0,1-1.87-.75,3.05,3.05,0,0,1-.65-2.1V2.05h1.14V5.38a2.59,2.59,0,0,0,.37,1.54,1.21,1.21,0,0,0,1.08.53,1.5,1.5,0,0,0,.8-.22,1.42,1.42,0,0,0,.56-.6,2.07,2.07,0,0,0,.17-.58A5.66,5.66,0,0,0,111.38,5V2.05h1.13V8.42Z"></path><polygon class="a61ce9e3-db06-420b-bde3-181c4498a6b0" points="114.3 8.42 114.3 3.08 113.39 3.08 113.39 2.05 114.3 2.05 114.3 0 115.43 0 115.43 2.05 116.34 2.05 116.34 3.08 115.43 3.08 115.43 8.42 114.3 8.42"></polygon><path class="a61ce9e3-db06-420b-bde3-181c4498a6b0" d="M116.8,5.24A3.2,3.2,0,0,1,117,4a3.24,3.24,0,0,1,.66-1.08,3.94,3.94,0,0,1,1.09-.79,3.17,3.17,0,0,1,2.54,0,3,3,0,0,1,1.06.73,3.18,3.18,0,0,1,.73,1.08,3.34,3.34,0,0,1,.25,1.23,3.27,3.27,0,0,1-.24,1.28,3.3,3.3,0,0,1-1.75,1.88,2.92,2.92,0,0,1-1.28.28,3.55,3.55,0,0,1-1.28-.24,3.19,3.19,0,0,1-1.07-.75,3.52,3.52,0,0,1-.7-1.08,3.58,3.58,0,0,1-.24-1.28m1.19,0a2.11,2.11,0,0,0,.59,1.58,2.07,2.07,0,0,0,3,0,2.25,2.25,0,0,0,.59-1.59,2.34,2.34,0,0,0-.59-1.62A2.08,2.08,0,0,0,120.08,3a2,2,0,0,0-1.5.64,2.19,2.19,0,0,0-.59,1.6"></path><path class="a61ce9e3-db06-420b-bde3-181c4498a6b0" d="M125.51,8.42h-1.16V2.05h1.09V2.8a1.75,1.75,0,0,1,.64-.63,1.63,1.63,0,0,1,.85-.22V3.14a1.7,1.7,0,0,0-1.1.46,2.07,2.07,0,0,0-.32,1.28V8.42Z"></path></g></g></svg>